<svg width="30" height="30" viewBox="0 0 30 30" fill="none" xmlns="http://www.w3.org/2000/svg">
<path d="M14.5875 6.50648C14.3238 6.24313 13.9664 6.09521 13.5937 6.09521C13.2211 6.09521 12.8637 6.24313 12.6 6.50648L4.63123 14.4752C4.36789 14.7389 4.21997 15.0963 4.21997 15.469C4.21997 15.8416 4.36789 16.1991 4.63123 16.4627L12.6 24.4315C12.8665 24.6802 13.2192 24.8157 13.5837 24.8094C13.9482 24.8031 14.296 24.6555 14.5537 24.3977C14.8115 24.14 14.9591 23.7922 14.9654 23.4277C14.9717 23.0632 14.8362 22.7105 14.5875 22.444L9.01873 16.8752H22.9687C23.3417 16.8752 23.6994 16.7271 23.9631 16.4633C24.2268 16.1996 24.375 15.8419 24.375 15.469C24.375 15.096 24.2268 14.7383 23.9631 14.4746C23.6994 14.2109 23.3417 14.0627 22.9687 14.0627H9.01873L14.5875 8.49398C14.8508 8.23031 14.9987 7.87288 14.9987 7.50023C14.9987 7.12757 14.8508 6.77015 14.5875 6.50648Z" fill="white"/>
</svg>
