<svg width="57" height="57" viewBox="0 0 57 57" fill="none" xmlns="http://www.w3.org/2000/svg">
<path d="M21.0966 19.8874C21.0969 19.3905 21.2944 18.9141 21.6458 18.5628C21.9971 18.2114 22.4736 18.0139 22.9705 18.0136L37.9965 18.0136C38.4933 18.0139 38.9698 18.2114 39.3211 18.5628C39.6725 18.9141 39.87 19.3905 39.8703 19.8874L39.8703 34.9134C39.8535 35.3992 39.6487 35.8595 39.2991 36.1972C38.9496 36.5349 38.4825 36.7236 37.9965 36.7236C37.5104 36.7236 37.0434 36.5349 36.6938 36.1972C36.3442 35.8595 36.1394 35.3992 36.1226 34.9134L36.1226 24.4129L22.9704 37.5651C22.6188 37.9167 22.1419 38.1143 21.6446 38.1143C21.1473 38.1143 20.6704 37.9167 20.3188 37.5651C19.9672 37.2135 19.7696 36.7365 19.7696 36.2393C19.7696 35.742 19.9672 35.2651 20.3188 34.9134L33.471 21.7613L22.9704 21.7613C22.4736 21.7609 21.9971 21.5634 21.6458 21.2121C21.2944 20.8607 21.0969 20.3843 21.0966 19.8874Z" fill="#C5D5E9"/>
</svg>
