<svg width="129" height="129" viewBox="0 0 129 129" fill="none" xmlns="http://www.w3.org/2000/svg">
<rect width="129" height="129" rx="64.5" fill="#A7B5B5" fill-opacity="0.26"/>
<path d="M65.3333 78.6667C78.22 78.6667 88.6667 68.22 88.6667 55.3333C88.6667 42.4467 78.22 32 65.3333 32C52.4467 32 42 42.4467 42 55.3333C42 68.22 52.4467 78.6667 65.3333 78.6667Z" stroke="#CFD7D9" stroke-width="5"/>
<path d="M49.8366 75.3333L47.7133 83.0766C45.6199 90.7166 44.5733 94.5366 45.9699 96.6266C46.4599 97.3599 47.1166 97.9466 47.8799 98.3366C50.0533 99.4432 53.4133 97.6933 60.1299 94.1933C62.3633 93.0266 63.4833 92.4466 64.6699 92.3199C65.1111 92.2758 65.5555 92.2758 65.9966 92.3199C67.1833 92.4466 68.2999 93.0299 70.5366 94.1933C77.2533 97.6933 80.6133 99.4432 82.7866 98.3366C83.5499 97.9466 84.2066 97.3599 84.6966 96.6266C86.0966 94.5366 85.0466 90.7166 82.9533 83.0766L80.8299 75.3333" stroke="#CFD7D9" stroke-width="5" stroke-linecap="round"/>
</svg>
