<svg width="129" height="129" viewBox="0 0 129 129" fill="none" xmlns="http://www.w3.org/2000/svg">
<rect width="129" height="129" rx="64.5" fill="#A7B5B5" fill-opacity="0.26"/>
<path d="M54.8288 39.3298C54.4159 38.9084 53.9246 38.574 53.3834 38.3457C52.8421 38.1175 52.2616 38 51.6752 38C51.0889 38 50.5084 38.1175 49.9671 38.3457C49.4259 38.574 48.9346 38.9084 48.5217 39.3298L26.3138 61.8081C25.8975 62.226 25.5671 62.7232 25.3416 63.2711C25.1161 63.8189 25 64.4065 25 65C25 65.5935 25.1161 66.1811 25.3416 66.7289C25.5671 67.2768 25.8975 67.774 26.3138 68.1919L48.5217 90.6702C48.9346 91.0916 49.4259 91.426 49.9671 91.6543C50.5084 91.8825 51.0889 92 51.6752 92C52.2616 92 52.8421 91.8825 53.3834 91.6543C53.9246 91.426 54.4159 91.0916 54.8288 90.6702C55.2451 90.2523 55.5755 89.755 55.801 89.2072C56.0265 88.6594 56.1426 88.0718 56.1426 87.4783C56.1426 86.8848 56.0265 86.2972 55.801 85.7494C55.5755 85.2015 55.2451 84.7043 54.8288 84.2864L35.73 65L54.8288 45.7136C55.2451 45.2957 55.5755 44.7985 55.801 44.2506C56.0265 43.7028 56.1426 43.1152 56.1426 42.5217C56.1426 41.9282 56.0265 41.3406 55.801 40.7928C55.5755 40.245 55.2451 39.7477 54.8288 39.3298ZM103.686 61.8081L81.4783 39.3298C81.0641 38.9106 80.5725 38.5781 80.0314 38.3513C79.4903 38.1244 78.9104 38.0077 78.3247 38.0077C77.1419 38.0077 76.0076 38.4833 75.1712 39.3298C74.7571 39.749 74.4286 40.2466 74.2045 40.7943C73.9803 41.3419 73.865 41.9289 73.865 42.5217C73.865 43.7189 74.3349 44.8671 75.1712 45.7136L94.27 65L75.1712 84.2864C74.7549 84.7043 74.4245 85.2015 74.199 85.7494C73.9735 86.2972 73.8574 86.8848 73.8574 87.4783C73.8574 88.0718 73.9735 88.6594 74.199 89.2072C74.4245 89.755 74.7549 90.2523 75.1712 90.6702C75.5841 91.0916 76.0754 91.426 76.6166 91.6543C77.1579 91.8825 77.7384 92 78.3247 92C78.9111 92 79.4916 91.8825 80.0329 91.6543C80.5741 91.426 81.0654 91.0916 81.4783 90.6702L103.686 68.1919C104.102 67.774 104.433 67.2768 104.658 66.7289C104.884 66.1811 105 65.5935 105 65C105 64.4065 104.884 63.8189 104.658 63.2711C104.433 62.7232 104.102 62.226 103.686 61.8081Z" fill="#CFD7D9"/>
</svg>
