<svg width="94" height="107" viewBox="0 0 94 107" fill="none" xmlns="http://www.w3.org/2000/svg">
<path d="M42.2292 42.1043C42.0355 41.909 41.8051 41.754 41.5512 41.6483C41.2973 41.5425 41.025 41.488 40.75 41.488C40.475 41.488 40.2027 41.5425 39.9488 41.6483C39.6949 41.754 39.4645 41.909 39.2708 42.1043L28.8542 52.521C28.6589 52.7146 28.5039 52.945 28.3981 53.1989C28.2924 53.4528 28.2379 53.7251 28.2379 54.0001C28.2379 54.2751 28.2924 54.5474 28.3981 54.8013C28.5039 55.0552 28.6589 55.2856 28.8542 55.4793L39.2708 65.896C39.4645 66.0912 39.6949 66.2462 39.9488 66.352C40.2027 66.4577 40.475 66.5122 40.75 66.5122C41.025 66.5122 41.2973 66.4577 41.5512 66.352C41.8051 66.2462 42.0355 66.0912 42.2292 65.896C42.4244 65.7023 42.5794 65.4719 42.6852 65.218C42.791 64.9641 42.8454 64.6918 42.8454 64.4168C42.8454 64.1418 42.791 63.8695 42.6852 63.6156C42.5794 63.3617 42.4244 63.1313 42.2292 62.9376L33.2708 54.0001L42.2292 45.0626C42.4244 44.8689 42.5794 44.6385 42.6852 44.3847C42.791 44.1308 42.8454 43.8585 42.8454 43.5835C42.8454 43.3084 42.791 43.0361 42.6852 42.7822C42.5794 42.5284 42.4244 42.298 42.2292 42.1043ZM65.1458 52.521L54.7292 42.1043C54.5349 41.91 54.3043 41.756 54.0505 41.6508C53.7967 41.5457 53.5247 41.4916 53.25 41.4916C52.6952 41.4916 52.1631 41.712 51.7708 42.1043C51.5766 42.2985 51.4225 42.5291 51.3174 42.7829C51.2122 43.0367 51.1581 43.3087 51.1581 43.5835C51.1581 44.1382 51.3785 44.6703 51.7708 45.0626L60.7292 54.0001L51.7708 62.9376C51.5756 63.1313 51.4206 63.3617 51.3148 63.6156C51.209 63.8695 51.1546 64.1418 51.1546 64.4168C51.1546 64.6918 51.209 64.9641 51.3148 65.218C51.4206 65.4719 51.5756 65.7023 51.7708 65.896C51.9645 66.0912 52.1949 66.2462 52.4488 66.352C52.7027 66.4577 52.975 66.5122 53.25 66.5122C53.525 66.5122 53.7973 66.4577 54.0512 66.352C54.3051 66.2462 54.5355 66.0912 54.7292 65.896L65.1458 55.4793C65.3411 55.2856 65.4961 55.0552 65.6019 54.8013C65.7076 54.5474 65.7621 54.2751 65.7621 54.0001C65.7621 53.7251 65.7076 53.4528 65.6019 53.1989C65.4961 52.945 65.3411 52.7146 65.1458 52.521Z" fill="#318A99"/>
</svg>
