<svg width="30" height="30" viewBox="0 0 30 30" fill="none" xmlns="http://www.w3.org/2000/svg">
<path d="M15.4125 6.50623C15.6762 6.24289 16.0336 6.09497 16.4063 6.09497C16.7789 6.09497 17.1363 6.24289 17.4 6.50623L25.3688 14.475C25.6321 14.7387 25.78 15.0961 25.78 15.4687C25.78 15.8414 25.6321 16.1988 25.3688 16.4625L17.4 24.4312C17.1335 24.6799 16.7808 24.8154 16.4163 24.8091C16.0518 24.8028 15.704 24.6552 15.4463 24.3975C15.1885 24.1397 15.0409 23.7919 15.0346 23.4274C15.0283 23.0629 15.1638 22.7103 15.4125 22.4437L20.9813 16.875H7.03127C6.65831 16.875 6.30062 16.7268 6.0369 16.4631C5.77318 16.1994 5.62502 15.8417 5.62502 15.4687C5.62502 15.0958 5.77318 14.7381 6.0369 14.4744C6.30062 14.2106 6.65831 14.0625 7.03127 14.0625H20.9813L15.4125 8.49373C15.1492 8.23006 15.0013 7.87264 15.0013 7.49998C15.0013 7.12733 15.1492 6.76991 15.4125 6.50623Z" fill="white"/>
</svg>
