<svg width="94" height="107" viewBox="0 0 94 107" fill="none" xmlns="http://www.w3.org/2000/svg">
<path d="M59.5 74.8334C60.605 74.8334 61.6649 74.3944 62.4463 73.613C63.2277 72.8316 63.6666 71.7718 63.6666 70.6667V45.6667L51.1666 33.1667H34.5C33.3949 33.1667 32.3351 33.6057 31.5537 34.3871C30.7723 35.1685 30.3333 36.2283 30.3333 37.3334V70.6667C30.3333 71.7718 30.7723 72.8316 31.5537 73.613C32.3351 74.3944 33.3949 74.8334 34.5 74.8334H59.5ZM49.0833 37.3334L59.5 47.7501H49.0833V37.3334ZM36.5833 45.6667H42.8333V49.8334H36.5833V45.6667ZM36.5833 54.0001H57.4166V58.1667H36.5833V54.0001ZM36.5833 62.3334H57.4166V66.5001H36.5833V62.3334Z" fill="white"/>
</svg>
