<svg width="40" height="40" viewBox="0 0 40 40" fill="none" xmlns="http://www.w3.org/2000/svg">
<path d="M28.2933 3.85002C27.0411 4.27258 25.8502 4.85876 24.7516 5.59335C23.1991 5.19598 21.6025 4.99662 19.9999 5.00002C18.3449 5.00002 16.7483 5.20669 15.2516 5.59169C14.1534 4.85781 12.9631 4.27219 11.7116 3.85002C10.5499 3.45502 8.89495 2.81502 7.91161 3.90336C7.24494 4.64336 7.07828 5.88336 6.95995 6.83002C6.82661 7.88669 6.79495 9.26335 7.14495 10.63C5.80661 12.3584 4.99994 14.42 4.99994 16.6667C4.99994 20.07 6.84328 23.025 9.57161 25.0717C10.8853 26.0432 12.3414 26.8056 13.8883 27.3317C13.5316 28.1484 13.3333 29.0517 13.3333 30V35C13.3333 35.442 13.5089 35.866 13.8214 36.1785C14.134 36.4911 14.5579 36.6667 14.9999 36.6667H24.9999C25.442 36.6667 25.8659 36.4911 26.1785 36.1785C26.491 35.866 26.6666 35.442 26.6666 35V33.3484C28.2583 33.5434 29.5933 33.37 30.7283 32.8884C31.9149 32.385 32.7416 31.605 33.3633 30.8584C33.9533 30.1517 34.5966 28.5584 35.5266 28.2484C35.7343 28.1792 35.9264 28.0698 36.0918 27.9264C36.2572 27.783 36.3928 27.6085 36.4908 27.4127C36.6886 27.0173 36.7213 26.5595 36.5816 26.14C36.4419 25.7205 36.1413 25.3737 35.7459 25.1759C35.3506 24.978 34.8928 24.9453 34.4733 25.085C33.3633 25.455 32.6399 26.255 32.1449 26.8984C31.3449 27.9317 30.6949 29.2817 29.4283 29.82C28.9066 30.0417 28.1416 30.1867 26.9449 30.0234L26.6666 29.9667C26.6628 29.0597 26.4739 28.1631 26.1116 27.3317C27.6585 26.8056 29.1146 26.0432 30.4283 25.0717C33.1566 23.025 34.9999 20.0717 34.9999 16.6667C34.9999 14.4234 34.1949 12.3634 32.8599 10.6367C33.2099 9.27002 33.1799 7.89002 33.0466 6.83169L33.0383 6.76835C32.9166 5.79835 32.7749 4.65669 32.0949 3.90336C31.1116 2.81502 29.4549 3.45669 28.2949 3.85169L28.2933 3.85002Z" fill="#C5D5E9"/>
</svg>
