<svg width="148" height="148" viewBox="0 0 148 148" fill="none" xmlns="http://www.w3.org/2000/svg">
<g filter="url(#filter0_f_98_37)">
<path d="M80.6667 67.3333H87.3334V69.8566C89.5923 68.3474 92.2186 67.4799 94.932 67.3468C97.6455 67.2138 100.344 67.8201 102.74 69.1011C105.135 70.3821 107.138 72.2897 108.534 74.6202C109.931 76.9507 110.668 79.6166 110.667 82.3333V100.667H104V82.3333C104 77.5666 100.087 74 95.6667 74C91.2467 74 87.3334 77.5666 87.3334 82.3333V100.667H80.6667V67.3333ZM74.0001 47.3333V54H47.3334V70.6666H74.0001V77.3333H47.3334V94H74.0001V100.667H40.6667V47.3333H74.0001Z" fill="white"/>
</g>
<path d="M80.6667 67.3333H87.3334V69.8566C89.5923 68.3474 92.2186 67.4799 94.932 67.3468C97.6455 67.2138 100.344 67.8201 102.74 69.1011C105.135 70.3821 107.138 72.2897 108.534 74.6202C109.931 76.9507 110.668 79.6166 110.667 82.3333V100.667H104V82.3333C104 77.5666 100.087 74 95.6667 74C91.2467 74 87.3334 77.5666 87.3334 82.3333V100.667H80.6667V67.3333ZM74.0001 47.3333V54H47.3334V70.6666H74.0001V77.3333H47.3334V94H74.0001V100.667H40.6667V47.3333H74.0001Z" fill="white"/>
<defs>
<filter id="filter0_f_98_37" x="28" y="28" width="92" height="92" filterUnits="userSpaceOnUse" color-interpolation-filters="sRGB">
<feFlood flood-opacity="0" result="BackgroundImageFix"/>
<feBlend mode="normal" in="SourceGraphic" in2="BackgroundImageFix" result="shape"/>
<feGaussianBlur stdDeviation="3" result="effect1_foregroundBlur_98_37"/>
</filter>
</defs>
</svg>
