<svg width="148" height="148" viewBox="0 0 148 148" fill="none" xmlns="http://www.w3.org/2000/svg">
<g filter="url(#filter0_f_82_354)">
<path fill-rule="evenodd" clip-rule="evenodd" d="M37.3333 55.6666C37.3333 53.4565 38.2112 51.3369 39.774 49.7741C41.3368 48.2113 43.4564 47.3333 45.6666 47.3333H48.2733C49.9947 47.3335 51.6738 47.8668 53.0799 48.86L57.3333 51.86V76.9066L37.3333 62.1233V55.6666ZM37.3333 68.34V100.667H57.3333V83.1233L37.3333 68.34ZM90.6666 83.1233V100.667H110.667V68.34L90.6666 83.1233ZM110.667 62.1233V55.6666C110.667 53.4565 109.789 51.3369 108.226 49.7741C106.663 48.2113 104.543 47.3333 102.333 47.3333H99.7266C98.0051 47.3335 96.326 47.8668 94.9199 48.86L90.6666 51.86V76.9066L110.667 62.1233ZM85.6666 55.39L73.9999 63.6266L62.3333 55.3933V80.6L73.9999 89.2233L85.6666 80.6V55.39Z" fill="white"/>
</g>
<path fill-rule="evenodd" clip-rule="evenodd" d="M37.3333 55.6666C37.3333 53.4565 38.2112 51.3369 39.774 49.7741C41.3368 48.2113 43.4564 47.3333 45.6666 47.3333H48.2733C49.9947 47.3335 51.6738 47.8668 53.0799 48.86L57.3333 51.86V76.9066L37.3333 62.1233V55.6666ZM37.3333 68.34V100.667H57.3333V83.1233L37.3333 68.34ZM90.6666 83.1233V100.667H110.667V68.34L90.6666 83.1233ZM110.667 62.1233V55.6666C110.667 53.4565 109.789 51.3369 108.226 49.7741C106.663 48.2113 104.543 47.3333 102.333 47.3333H99.7266C98.0051 47.3335 96.326 47.8668 94.9199 48.86L90.6666 51.86V76.9066L110.667 62.1233ZM85.6666 55.39L73.9999 63.6266L62.3333 55.3933V80.6L73.9999 89.2233L85.6666 80.6V55.39Z" fill="white"/>
<defs>
<filter id="filter0_f_82_354" x="28" y="28" width="92" height="92" filterUnits="userSpaceOnUse" color-interpolation-filters="sRGB">
<feFlood flood-opacity="0" result="BackgroundImageFix"/>
<feBlend mode="normal" in="SourceGraphic" in2="BackgroundImageFix" result="shape"/>
<feGaussianBlur stdDeviation="3" result="effect1_foregroundBlur_82_354"/>
</filter>
</defs>
</svg>
