<svg width="148" height="148" viewBox="0 0 148 148" fill="none" xmlns="http://www.w3.org/2000/svg">
<g filter="url(#filter0_f_82_349)">
<path d="M85.6562 61.75C82.9417 61.7407 80.2521 62.2667 77.7411 63.298C75.2301 64.3292 72.9471 65.8455 71.0227 67.76C69.0983 69.6745 67.5703 71.9497 66.5262 74.4554C65.482 76.961 64.9421 79.648 64.9375 82.3625V103.188C64.9375 104.033 65.2733 104.844 65.8711 105.441C66.4689 106.039 67.2796 106.375 68.125 106.375H75.5625C76.4079 106.375 77.2186 106.039 77.8164 105.441C78.4142 104.844 78.75 104.033 78.75 103.188V82.3625C78.7493 81.397 78.9521 80.4423 79.3451 79.5604C79.7381 78.6786 80.3126 77.8895 81.0311 77.2446C81.7495 76.5997 82.5958 76.1134 83.5148 75.8174C84.4338 75.5215 85.4048 75.4226 86.3646 75.5271C88.0859 75.7439 89.6677 76.5849 90.8101 77.8905C91.9526 79.1961 92.5761 80.8756 92.5625 82.6104V103.188C92.5625 104.033 92.8983 104.844 93.4961 105.441C94.0939 106.039 94.9046 106.375 95.75 106.375H103.188C104.033 106.375 104.844 106.039 105.441 105.441C106.039 104.844 106.375 104.033 106.375 103.188V82.3625C106.37 79.648 105.831 76.961 104.786 74.4554C103.742 71.9497 102.214 69.6745 100.29 67.76C98.3654 65.8455 96.0824 64.3292 93.5714 63.298C91.0604 62.2667 88.3707 61.7407 85.6562 61.75Z" fill="white"/>
<path d="M55.375 64.9375H45.8125C44.0521 64.9375 42.625 66.3646 42.625 68.125V103.188C42.625 104.948 44.0521 106.375 45.8125 106.375H55.375C57.1354 106.375 58.5625 104.948 58.5625 103.188V68.125C58.5625 66.3646 57.1354 64.9375 55.375 64.9375Z" fill="white"/>
<path d="M50.5938 58.5625C54.9948 58.5625 58.5625 54.9948 58.5625 50.5938C58.5625 46.1927 54.9948 42.625 50.5938 42.625C46.1927 42.625 42.625 46.1927 42.625 50.5938C42.625 54.9948 46.1927 58.5625 50.5938 58.5625Z" fill="white"/>
</g>
<path d="M85.6562 61.75C82.9417 61.7407 80.2521 62.2667 77.7411 63.298C75.2301 64.3292 72.9471 65.8455 71.0227 67.76C69.0983 69.6745 67.5703 71.9497 66.5262 74.4554C65.482 76.961 64.9421 79.648 64.9375 82.3625V103.188C64.9375 104.033 65.2733 104.844 65.8711 105.441C66.4689 106.039 67.2796 106.375 68.125 106.375H75.5625C76.4079 106.375 77.2186 106.039 77.8164 105.441C78.4142 104.844 78.75 104.033 78.75 103.188V82.3625C78.7493 81.397 78.9521 80.4423 79.3451 79.5604C79.7381 78.6786 80.3126 77.8895 81.0311 77.2446C81.7495 76.5997 82.5958 76.1134 83.5148 75.8174C84.4338 75.5215 85.4048 75.4226 86.3646 75.5271C88.0859 75.7439 89.6677 76.5849 90.8101 77.8905C91.9526 79.1961 92.5761 80.8756 92.5625 82.6104V103.188C92.5625 104.033 92.8983 104.844 93.4961 105.441C94.0939 106.039 94.9046 106.375 95.75 106.375H103.188C104.033 106.375 104.844 106.039 105.441 105.441C106.039 104.844 106.375 104.033 106.375 103.188V82.3625C106.37 79.648 105.831 76.961 104.786 74.4554C103.742 71.9497 102.214 69.6745 100.29 67.76C98.3654 65.8455 96.0824 64.3292 93.5714 63.298C91.0604 62.2667 88.3707 61.7407 85.6562 61.75Z" fill="white"/>
<path d="M55.375 64.9375H45.8125C44.0521 64.9375 42.625 66.3646 42.625 68.125V103.188C42.625 104.948 44.0521 106.375 45.8125 106.375H55.375C57.1354 106.375 58.5625 104.948 58.5625 103.188V68.125C58.5625 66.3646 57.1354 64.9375 55.375 64.9375Z" fill="white"/>
<path d="M50.5938 58.5625C54.9948 58.5625 58.5625 54.9948 58.5625 50.5938C58.5625 46.1927 54.9948 42.625 50.5938 42.625C46.1927 42.625 42.625 46.1927 42.625 50.5938C42.625 54.9948 46.1927 58.5625 50.5938 58.5625Z" fill="white"/>
<defs>
<filter id="filter0_f_82_349" x="26" y="26" width="97" height="97" filterUnits="userSpaceOnUse" color-interpolation-filters="sRGB">
<feFlood flood-opacity="0" result="BackgroundImageFix"/>
<feBlend mode="normal" in="SourceGraphic" in2="BackgroundImageFix" result="shape"/>
<feGaussianBlur stdDeviation="3" result="effect1_foregroundBlur_82_349"/>
</filter>
</defs>
</svg>
