<svg width="148" height="148" viewBox="0 0 148 148" fill="none" xmlns="http://www.w3.org/2000/svg">
<g filter="url(#filter0_f_82_344)">
<path d="M75 36C78.6719 36 82.2135 36.4685 85.625 37.4054C89.0365 38.3423 92.2135 39.6957 95.1562 41.4655C98.099 43.2352 100.794 45.3173 103.242 47.7117C105.69 50.1061 107.786 52.7998 109.531 55.7928C111.276 58.7858 112.617 61.974 113.555 65.3574C114.492 68.7407 114.974 72.2803 115 75.976C115 80.2703 114.349 84.4084 113.047 88.3904C111.745 92.3724 109.883 96.029 107.461 99.3604C105.039 102.692 102.161 105.607 98.8281 108.105C95.4948 110.604 91.7708 112.543 87.6562 113.922C87.5781 113.948 87.4609 113.961 87.3047 113.961C87.1484 113.961 87.0312 113.974 86.9531 114C86.3281 114 85.8333 113.818 85.4688 113.453C85.1042 113.089 84.9219 112.608 84.9219 112.009V106.544C84.9219 104.748 84.9349 102.913 84.9609 101.039C84.9609 99.7117 84.7656 98.3714 84.375 97.018C83.9844 95.6647 83.2812 94.5325 82.2656 93.6216C85.2865 93.2833 87.9297 92.6717 90.1953 91.7868C92.4609 90.9019 94.362 89.6527 95.8984 88.039C97.4349 86.4254 98.5807 84.4735 99.3359 82.1832C100.091 79.8929 100.482 77.1341 100.508 73.9069C100.508 71.8769 100.169 69.964 99.4922 68.1682C98.8151 66.3724 97.7865 64.7067 96.4062 63.1712C96.6927 62.4424 96.901 61.6877 97.0312 60.9069C97.1615 60.1261 97.2266 59.3453 97.2266 58.5646C97.2266 57.5495 97.1224 56.5475 96.9141 55.5586C96.7057 54.5696 96.4062 53.5806 96.0156 52.5916C95.8854 52.5395 95.7422 52.5135 95.5859 52.5135C95.4297 52.5135 95.2865 52.5135 95.1562 52.5135C94.3229 52.5135 93.4505 52.6436 92.5391 52.9039C91.6276 53.1642 90.7292 53.5025 89.8438 53.9189C88.9583 54.3353 88.0859 54.7908 87.2266 55.2853C86.3672 55.7798 85.625 56.2482 85 56.6907C81.7448 55.7798 78.4115 55.3243 75 55.3243C71.5885 55.3243 68.2552 55.7798 65 56.6907C64.349 56.2482 63.6068 55.7798 62.7734 55.2853C61.9401 54.7908 61.0807 54.3483 60.1953 53.958C59.3099 53.5676 58.3984 53.2292 57.4609 52.9429C56.5234 52.6567 55.651 52.5135 54.8438 52.5135H54.4141C54.2578 52.5135 54.1146 52.5395 53.9844 52.5916C53.6198 53.5546 53.3333 54.5305 53.125 55.5195C52.9167 56.5085 52.7995 57.5235 52.7734 58.5646C52.7734 59.3453 52.8385 60.1261 52.9688 60.9069C53.099 61.6877 53.3073 62.4424 53.5938 63.1712C52.2135 64.6807 51.1849 66.3333 50.5078 68.1291C49.8307 69.9249 49.4922 71.8508 49.4922 73.9069C49.4922 77.0821 49.8698 79.8278 50.625 82.1441C51.3802 84.4605 52.526 86.4124 54.0625 88C55.599 89.5876 57.5 90.8498 59.7656 91.7868C62.0312 92.7237 64.6745 93.3483 67.6953 93.6607C66.9401 94.3373 66.3672 95.1441 65.9766 96.0811C65.5859 97.018 65.3125 97.994 65.1562 99.009C64.4531 99.3473 63.7109 99.6076 62.9297 99.7898C62.1484 99.972 61.3672 100.063 60.5859 100.063C58.9193 100.063 57.5391 99.6727 56.4453 98.8919C55.3516 98.1111 54.375 97.044 53.5156 95.6907C53.2031 95.1962 52.8255 94.7017 52.3828 94.2072C51.9401 93.7127 51.4583 93.2703 50.9375 92.8799C50.4167 92.4895 49.8568 92.1772 49.2578 91.9429C48.6589 91.7087 48.0339 91.5786 47.3828 91.5526H46.9141C46.7057 91.5526 46.5104 91.5916 46.3281 91.6697C46.1458 91.7477 45.9635 91.8258 45.7812 91.9039C45.599 91.982 45.5208 92.1121 45.5469 92.2943C45.5469 92.6066 45.7292 92.9059 46.0938 93.1922C46.4583 93.4785 46.7578 93.7127 46.9922 93.8949L47.1094 93.973C47.6823 94.4154 48.1771 94.8318 48.5938 95.2222C49.0104 95.6126 49.401 96.042 49.7656 96.5105C50.1302 96.979 50.4297 97.4735 50.6641 97.994C50.8984 98.5145 51.1979 99.1261 51.5625 99.8288C52.4479 101.859 53.6849 103.329 55.2734 104.24C56.862 105.151 58.776 105.62 61.0156 105.646C61.6927 105.646 62.3698 105.607 63.0469 105.529C63.724 105.45 64.401 105.333 65.0781 105.177V111.97C65.0781 112.595 64.8958 113.089 64.5312 113.453C64.1667 113.818 63.6589 114 63.0078 114H62.6953C62.5651 114 62.4479 113.974 62.3438 113.922C58.2552 112.595 54.5312 110.682 51.1719 108.183C47.8125 105.685 44.9349 102.757 42.5391 99.3994C40.1432 96.042 38.2943 92.3724 36.9922 88.3904C35.6901 84.4084 35.026 80.2703 35 75.976C35 72.3063 35.4688 68.7668 36.4062 65.3574C37.3438 61.9479 38.6979 58.7728 40.4688 55.8318C42.2396 52.8909 44.3229 50.1972 46.7188 47.7508C49.1146 45.3043 51.8099 43.2092 54.8047 41.4655C57.7995 39.7217 60.9896 38.3814 64.375 37.4444C67.7604 36.5075 71.3021 36.026 75 36Z" fill="white"/>
</g>
<path d="M75 36C78.6719 36 82.2135 36.4685 85.625 37.4054C89.0365 38.3423 92.2135 39.6957 95.1562 41.4655C98.099 43.2352 100.794 45.3173 103.242 47.7117C105.69 50.1061 107.786 52.7998 109.531 55.7928C111.276 58.7858 112.617 61.974 113.555 65.3574C114.492 68.7407 114.974 72.2803 115 75.976C115 80.2703 114.349 84.4084 113.047 88.3904C111.745 92.3724 109.883 96.029 107.461 99.3604C105.039 102.692 102.161 105.607 98.8281 108.105C95.4948 110.604 91.7708 112.543 87.6562 113.922C87.5781 113.948 87.4609 113.961 87.3047 113.961C87.1484 113.961 87.0312 113.974 86.9531 114C86.3281 114 85.8333 113.818 85.4688 113.453C85.1042 113.089 84.9219 112.608 84.9219 112.009V106.544C84.9219 104.748 84.9349 102.913 84.9609 101.039C84.9609 99.7117 84.7656 98.3714 84.375 97.018C83.9844 95.6647 83.2812 94.5325 82.2656 93.6216C85.2865 93.2833 87.9297 92.6717 90.1953 91.7868C92.4609 90.9019 94.362 89.6527 95.8984 88.039C97.4349 86.4254 98.5807 84.4735 99.3359 82.1832C100.091 79.8929 100.482 77.1341 100.508 73.9069C100.508 71.8769 100.169 69.964 99.4922 68.1682C98.8151 66.3724 97.7865 64.7067 96.4062 63.1712C96.6927 62.4424 96.901 61.6877 97.0312 60.9069C97.1615 60.1261 97.2266 59.3453 97.2266 58.5646C97.2266 57.5495 97.1224 56.5475 96.9141 55.5586C96.7057 54.5696 96.4062 53.5806 96.0156 52.5916C95.8854 52.5395 95.7422 52.5135 95.5859 52.5135C95.4297 52.5135 95.2865 52.5135 95.1562 52.5135C94.3229 52.5135 93.4505 52.6436 92.5391 52.9039C91.6276 53.1642 90.7292 53.5025 89.8438 53.9189C88.9583 54.3353 88.0859 54.7908 87.2266 55.2853C86.3672 55.7798 85.625 56.2482 85 56.6907C81.7448 55.7798 78.4115 55.3243 75 55.3243C71.5885 55.3243 68.2552 55.7798 65 56.6907C64.349 56.2482 63.6068 55.7798 62.7734 55.2853C61.9401 54.7908 61.0807 54.3483 60.1953 53.958C59.3099 53.5676 58.3984 53.2292 57.4609 52.9429C56.5234 52.6567 55.651 52.5135 54.8438 52.5135H54.4141C54.2578 52.5135 54.1146 52.5395 53.9844 52.5916C53.6198 53.5546 53.3333 54.5305 53.125 55.5195C52.9167 56.5085 52.7995 57.5235 52.7734 58.5646C52.7734 59.3453 52.8385 60.1261 52.9688 60.9069C53.099 61.6877 53.3073 62.4424 53.5938 63.1712C52.2135 64.6807 51.1849 66.3333 50.5078 68.1291C49.8307 69.9249 49.4922 71.8508 49.4922 73.9069C49.4922 77.0821 49.8698 79.8278 50.625 82.1441C51.3802 84.4605 52.526 86.4124 54.0625 88C55.599 89.5876 57.5 90.8498 59.7656 91.7868C62.0312 92.7237 64.6745 93.3483 67.6953 93.6607C66.9401 94.3373 66.3672 95.1441 65.9766 96.0811C65.5859 97.018 65.3125 97.994 65.1562 99.009C64.4531 99.3473 63.7109 99.6076 62.9297 99.7898C62.1484 99.972 61.3672 100.063 60.5859 100.063C58.9193 100.063 57.5391 99.6727 56.4453 98.8919C55.3516 98.1111 54.375 97.044 53.5156 95.6907C53.2031 95.1962 52.8255 94.7017 52.3828 94.2072C51.9401 93.7127 51.4583 93.2703 50.9375 92.8799C50.4167 92.4895 49.8568 92.1772 49.2578 91.9429C48.6589 91.7087 48.0339 91.5786 47.3828 91.5526H46.9141C46.7057 91.5526 46.5104 91.5916 46.3281 91.6697C46.1458 91.7477 45.9635 91.8258 45.7812 91.9039C45.599 91.982 45.5208 92.1121 45.5469 92.2943C45.5469 92.6066 45.7292 92.9059 46.0938 93.1922C46.4583 93.4785 46.7578 93.7127 46.9922 93.8949L47.1094 93.973C47.6823 94.4154 48.1771 94.8318 48.5938 95.2222C49.0104 95.6126 49.401 96.042 49.7656 96.5105C50.1302 96.979 50.4297 97.4735 50.6641 97.994C50.8984 98.5145 51.1979 99.1261 51.5625 99.8288C52.4479 101.859 53.6849 103.329 55.2734 104.24C56.862 105.151 58.776 105.62 61.0156 105.646C61.6927 105.646 62.3698 105.607 63.0469 105.529C63.724 105.45 64.401 105.333 65.0781 105.177V111.97C65.0781 112.595 64.8958 113.089 64.5312 113.453C64.1667 113.818 63.6589 114 63.0078 114H62.6953C62.5651 114 62.4479 113.974 62.3438 113.922C58.2552 112.595 54.5312 110.682 51.1719 108.183C47.8125 105.685 44.9349 102.757 42.5391 99.3994C40.1432 96.042 38.2943 92.3724 36.9922 88.3904C35.6901 84.4084 35.026 80.2703 35 75.976C35 72.3063 35.4688 68.7668 36.4062 65.3574C37.3438 61.9479 38.6979 58.7728 40.4688 55.8318C42.2396 52.8909 44.3229 50.1972 46.7188 47.7508C49.1146 45.3043 51.8099 43.2092 54.8047 41.4655C57.7995 39.7217 60.9896 38.3814 64.375 37.4444C67.7604 36.5075 71.3021 36.026 75 36Z" fill="white"/>
<defs>
<filter id="filter0_f_82_344" x="21" y="21" width="107" height="107" filterUnits="userSpaceOnUse" color-interpolation-filters="sRGB">
<feFlood flood-opacity="0" result="BackgroundImageFix"/>
<feBlend mode="normal" in="SourceGraphic" in2="BackgroundImageFix" result="shape"/>
<feGaussianBlur stdDeviation="3" result="effect1_foregroundBlur_82_344"/>
</filter>
</defs>
</svg>
