<svg width="100" height="100" viewBox="0 0 100 100" fill="none" xmlns="http://www.w3.org/2000/svg">
<g clip-path="url(#clip0_127_2)">
<g filter="url(#filter0_f_127_2)">
<mask id="path-1-outside-1_127_2" maskUnits="userSpaceOnUse" x="19" y="15" width="60" height="69" fill="black">
<rect fill="white" x="19" y="15" width="60" height="69"/>
<path d="M49.983 16.5455H57.9091V63.3352C57.9091 67.5114 57.142 71.0589 55.608 73.978C54.0739 76.897 51.9112 79.1129 49.12 80.6257C46.3288 82.1385 43.0369 82.8949 39.2443 82.8949C35.6648 82.8949 32.4794 82.245 29.6882 80.9453C26.897 79.6243 24.7024 77.7493 23.1044 75.3203C21.5064 72.8913 20.7074 70.0043 20.7074 66.6591H28.5057C28.5057 68.5128 28.9638 70.1321 29.88 71.517C30.8175 72.8807 32.0959 73.946 33.7152 74.7131C35.3345 75.4801 37.1776 75.8636 39.2443 75.8636C41.5241 75.8636 43.4631 75.3842 45.0611 74.4254C46.6591 73.4666 47.8736 72.0604 48.7045 70.2067C49.5568 68.3317 49.983 66.0412 49.983 63.3352V16.5455ZM37.7933 82V16.5455H77.2962V23.5767H45.7195V45.6932H75.2507V52.7244H45.7195V74.9688H77.8075V82H37.7933Z"/>
</mask>
<path d="M49.983 16.5455H57.9091V63.3352C57.9091 67.5114 57.142 71.0589 55.608 73.978C54.0739 76.897 51.9112 79.1129 49.12 80.6257C46.3288 82.1385 43.0369 82.8949 39.2443 82.8949C35.6648 82.8949 32.4794 82.245 29.6882 80.9453C26.897 79.6243 24.7024 77.7493 23.1044 75.3203C21.5064 72.8913 20.7074 70.0043 20.7074 66.6591H28.5057C28.5057 68.5128 28.9638 70.1321 29.88 71.517C30.8175 72.8807 32.0959 73.946 33.7152 74.7131C35.3345 75.4801 37.1776 75.8636 39.2443 75.8636C41.5241 75.8636 43.4631 75.3842 45.0611 74.4254C46.6591 73.4666 47.8736 72.0604 48.7045 70.2067C49.5568 68.3317 49.983 66.0412 49.983 63.3352V16.5455ZM37.7933 82V16.5455H77.2962V23.5767H45.7195V45.6932H75.2507V52.7244H45.7195V74.9688H77.8075V82H37.7933Z" fill="white"/>
<path d="M49.983 16.5455V15.5455H48.983V16.5455H49.983ZM57.9091 16.5455H58.9091V15.5455H57.9091V16.5455ZM55.608 73.978L56.4932 74.4432L55.608 73.978ZM49.12 80.6257L49.5965 81.5049H49.5965L49.12 80.6257ZM29.6882 80.9453L29.2604 81.8492L29.2661 81.8519L29.6882 80.9453ZM23.1044 75.3203L22.269 75.8699L23.1044 75.3203ZM20.7074 66.6591V65.6591H19.7074V66.6591H20.7074ZM28.5057 66.6591H29.5057V65.6591H28.5057V66.6591ZM29.88 71.517L29.046 72.0688L29.0509 72.0762L29.0559 72.0836L29.88 71.517ZM33.7152 74.7131L34.1433 73.8093L33.7152 74.7131ZM45.0611 74.4254L44.5466 73.5679L45.0611 74.4254ZM48.7045 70.2067L47.7942 69.7929L47.792 69.7976L48.7045 70.2067ZM49.983 16.5455V17.5455H57.9091V16.5455V15.5455H49.983V16.5455ZM57.9091 16.5455H56.9091V63.3352H57.9091H58.9091V16.5455H57.9091ZM57.9091 63.3352H56.9091C56.9091 67.3914 56.164 70.7704 54.7228 73.5128L55.608 73.978L56.4932 74.4432C58.1201 71.3475 58.9091 67.6313 58.9091 63.3352H57.9091ZM55.608 73.978L54.7228 73.5128C53.2771 76.2635 51.2535 78.332 48.6435 79.7465L49.12 80.6257L49.5965 81.5049C52.569 79.8939 54.8706 77.5305 56.4932 74.4432L55.608 73.978ZM49.12 80.6257L48.6435 79.7465C46.0246 81.1659 42.9028 81.8949 39.2443 81.8949V82.8949V83.8949C43.1711 83.8949 46.633 83.111 49.5965 81.5049L49.12 80.6257ZM39.2443 82.8949V81.8949C35.787 81.8949 32.7495 81.2677 30.1103 80.0388L29.6882 80.9453L29.2661 81.8519C32.2093 83.2224 35.5425 83.8949 39.2443 83.8949V82.8949ZM29.6882 80.9453L30.116 80.0414C27.4799 78.7938 25.4307 77.0368 23.9398 74.7707L23.1044 75.3203L22.269 75.8699C23.9741 78.4618 26.3142 80.4548 29.2604 81.8492L29.6882 80.9453ZM23.1044 75.3203L23.9398 74.7707C22.4646 72.5284 21.7074 69.8391 21.7074 66.6591H20.7074H19.7074C19.7074 70.1694 20.5481 73.2542 22.269 75.8699L23.1044 75.3203ZM20.7074 66.6591V67.6591H28.5057V66.6591V65.6591H20.7074V66.6591ZM28.5057 66.6591H27.5057C27.5057 68.6853 28.0092 70.5015 29.046 72.0688L29.88 71.517L30.714 70.9653C29.9184 69.7627 29.5057 68.3402 29.5057 66.6591H28.5057ZM29.88 71.517L29.0559 72.0836C30.1016 73.6045 31.522 74.7807 33.2871 75.6168L33.7152 74.7131L34.1433 73.8093C32.6698 73.1113 31.5334 72.1569 30.704 70.9505L29.88 71.517ZM33.7152 74.7131L33.2871 75.6168C35.0593 76.4563 37.0522 76.8636 39.2443 76.8636V75.8636V74.8636C37.3029 74.8636 35.6097 74.504 34.1433 73.8093L33.7152 74.7131ZM39.2443 75.8636V76.8636C41.665 76.8636 43.7908 76.3538 45.5756 75.2829L45.0611 74.4254L44.5466 73.5679C43.1353 74.4147 41.3833 74.8636 39.2443 74.8636V75.8636ZM45.0611 74.4254L45.5756 75.2829C47.3649 74.2093 48.7103 72.6385 49.6171 70.6157L48.7045 70.2067L47.792 69.7976C47.0368 71.4823 45.9533 72.7239 44.5466 73.5679L45.0611 74.4254ZM48.7045 70.2067L49.6149 70.6205C50.5417 68.5815 50.983 66.1412 50.983 63.3352H49.983H48.983C48.983 65.9412 48.5719 68.0818 47.7942 69.7929L48.7045 70.2067ZM49.983 63.3352H50.983V16.5455H49.983H48.983V63.3352H49.983ZM37.7933 82H36.7933V83H37.7933V82ZM37.7933 16.5455V15.5455H36.7933V16.5455H37.7933ZM77.2962 16.5455H78.2962V15.5455H77.2962V16.5455ZM77.2962 23.5767V24.5767H78.2962V23.5767H77.2962ZM45.7195 23.5767V22.5767H44.7195V23.5767H45.7195ZM45.7195 45.6932H44.7195V46.6932H45.7195V45.6932ZM75.2507 45.6932H76.2507V44.6932H75.2507V45.6932ZM75.2507 52.7244V53.7244H76.2507V52.7244H75.2507ZM45.7195 52.7244V51.7244H44.7195V52.7244H45.7195ZM45.7195 74.9688H44.7195V75.9688H45.7195V74.9688ZM77.8075 74.9688H78.8075V73.9688H77.8075V74.9688ZM77.8075 82V83H78.8075V82H77.8075ZM37.7933 82H38.7933V16.5455H37.7933H36.7933V82H37.7933ZM37.7933 16.5455V17.5455H77.2962V16.5455V15.5455H37.7933V16.5455ZM77.2962 16.5455H76.2962V23.5767H77.2962H78.2962V16.5455H77.2962ZM77.2962 23.5767V22.5767H45.7195V23.5767V24.5767H77.2962V23.5767ZM45.7195 23.5767H44.7195V45.6932H45.7195H46.7195V23.5767H45.7195ZM45.7195 45.6932V46.6932H75.2507V45.6932V44.6932H45.7195V45.6932ZM75.2507 45.6932H74.2507V52.7244H75.2507H76.2507V45.6932H75.2507ZM75.2507 52.7244V51.7244H45.7195V52.7244V53.7244H75.2507V52.7244ZM45.7195 52.7244H44.7195V74.9688H45.7195H46.7195V52.7244H45.7195ZM45.7195 74.9688V75.9688H77.8075V74.9688V73.9688H45.7195V74.9688ZM77.8075 74.9688H76.8075V82H77.8075H78.8075V74.9688H77.8075ZM77.8075 82V81H37.7933V82V83H77.8075V82Z" fill="white" fill-opacity="0.52" mask="url(#path-1-outside-1_127_2)"/>
</g>
<path d="M49.983 16.5455H57.9091V63.3352C57.9091 67.5114 57.142 71.0589 55.608 73.978C54.0739 76.897 51.9112 79.1129 49.12 80.6257C46.3288 82.1385 43.0369 82.8949 39.2443 82.8949C35.6648 82.8949 32.4794 82.245 29.6882 80.9453C26.897 79.6243 24.7024 77.7493 23.1044 75.3203C21.5064 72.8913 20.7074 70.0043 20.7074 66.6591H28.5057C28.5057 68.5128 28.9638 70.1321 29.88 71.517C30.8175 72.8807 32.0959 73.946 33.7152 74.7131C35.3345 75.4801 37.1776 75.8636 39.2443 75.8636C41.5241 75.8636 43.4631 75.3842 45.0611 74.4254C46.6591 73.4666 47.8736 72.0604 48.7045 70.2067C49.5568 68.3317 49.983 66.0412 49.983 63.3352V16.5455ZM37.7933 82V16.5455H77.2962V23.5767H45.7195V45.6932H75.2507V52.7244H45.7195V74.9688H77.8075V82H37.7933Z" fill="white"/>
</g>
<defs>
<filter id="filter0_f_127_2" x="15.7074" y="11.5455" width="67.1002" height="76.3494" filterUnits="userSpaceOnUse" color-interpolation-filters="sRGB">
<feFlood flood-opacity="0" result="BackgroundImageFix"/>
<feBlend mode="normal" in="SourceGraphic" in2="BackgroundImageFix" result="shape"/>
<feGaussianBlur stdDeviation="2" result="effect1_foregroundBlur_127_2"/>
</filter>
<clipPath id="clip0_127_2">
<rect width="100" height="100" fill="white"/>
</clipPath>
</defs>
</svg>
