<svg width="129" height="129" viewBox="0 0 129 129" fill="none" xmlns="http://www.w3.org/2000/svg">
<rect width="129" height="129" rx="64.5" fill="#A7B5B5" fill-opacity="0.26"/>
<path d="M65 25C54.3913 25 44.2172 29.2143 36.7157 36.7157C29.2143 44.2172 25 54.3913 25 65C25 75.6087 29.2143 85.7828 36.7157 93.2843C44.2172 100.786 54.3913 105 65 105C75.6087 105 85.7828 100.786 93.2843 93.2843C100.786 85.7828 105 75.6087 105 65C105 54.3913 100.786 44.2172 93.2843 36.7157C85.7828 29.2143 75.6087 25 65 25ZM29.9333 68.0222H41.0889C41.2667 72.0667 41.8311 76.0844 42.7778 80.0222H33.1778C31.3912 76.247 30.2925 72.1834 29.9333 68.0222ZM68.0222 44.0222V30.2889C72.3053 31.9166 75.8247 35.0872 77.8889 39.1778C78.8015 40.7215 79.6015 42.3215 80.2889 43.9778L68.0222 44.0222ZM82.3333 50.0222C83.3644 53.9467 83.9778 57.9689 84.1556 62.0222H68.0222V50.0222H82.3333ZM61.9778 30.2889V44.0222H49.7111C50.3963 42.3674 51.1983 40.7633 52.1111 39.2222C54.1665 35.1149 57.6871 31.9274 61.9778 30.2889ZM61.9778 50.0222V62.0222H45.8889C46.0667 57.9689 46.68 53.9467 47.7111 50.0222H61.9778ZM41.0889 61.9778H29.9333C30.2925 57.8166 31.3912 53.753 33.1778 49.9778H42.7778C41.8257 53.9133 41.2601 57.9324 41.0889 61.9778ZM45.8889 68.0222H61.9778V80.0222H47.7111C46.6841 76.0973 46.0733 72.0751 45.8889 68.0222ZM62.0222 85.8V99.5333C57.7392 97.9057 54.2198 94.735 52.1556 90.6444C51.2428 89.1034 50.4408 87.4993 49.7556 85.8444L62.0222 85.8ZM68.0222 99.5333V86.0222H80.2889C79.6037 87.6771 78.8017 89.2811 77.8889 90.8222C75.8247 94.9128 72.3053 98.0835 68.0222 99.7111V99.5333ZM68.0222 79.8V67.8H84.1111C83.9267 71.8529 83.3159 75.8751 82.2889 79.8H68.0222ZM88.9556 67.8H100.111C99.752 71.9611 98.6533 76.0248 96.8667 79.8H87.2222C88.1556 75.9333 88.72 71.9911 88.9111 68.0222L88.9556 67.8ZM88.9556 61.8C88.7555 57.8277 88.1751 53.8837 87.2222 50.0222H96.8222C98.6133 53.8 99.7111 57.8622 100.067 62.0222L88.9556 61.8ZM93.4 44.0222H85.4445C84.0064 39.9785 81.9199 36.1957 79.2667 32.8222C84.7973 35.3048 89.6012 39.1602 93.2222 44.0222H93.4ZM50.7333 32.8222C48.0801 36.1957 45.9936 39.9785 44.5556 44.0222H36.7778C40.3988 39.1602 45.2027 35.3048 50.7333 32.8222ZM36.7333 86.1556H44.5556C45.9936 90.1993 48.0801 93.9821 50.7333 97.3556C45.1874 94.8356 40.382 90.9331 36.7778 86.0222L36.7333 86.1556ZM79.2222 97.3556C81.8755 93.9821 83.962 90.1993 85.4 86.1556H93.2222C89.5791 90.9524 84.7771 94.7451 79.2667 97.1778L79.2222 97.3556Z" fill="#CFD7D9"/>
</svg>
