<svg width="76" height="76" viewBox="0 0 76 76" fill="none" xmlns="http://www.w3.org/2000/svg">
<path d="M30.3716 18.985C30.0619 18.6729 29.6935 18.4252 29.2875 18.2561C28.8816 18.087 28.4462 18 28.0064 18C27.5667 18 27.1313 18.087 26.7253 18.2561C26.3194 18.4252 25.951 18.6729 25.6413 18.985L8.98536 35.6356C8.67313 35.9452 8.42531 36.3135 8.25619 36.7193C8.08707 37.1251 8 37.5604 8 38C8 38.4396 8.08707 38.8749 8.25619 39.2807C8.42531 39.6865 8.67313 40.0548 8.98536 40.3644L25.6413 57.015C25.951 57.3271 26.3194 57.5748 26.7253 57.7439C27.1313 57.913 27.5667 58 28.0064 58C28.4462 58 28.8816 57.913 29.2875 57.7439C29.6935 57.5748 30.0619 57.3271 30.3716 57.015C30.6838 56.7054 30.9316 56.3371 31.1007 55.9313C31.2699 55.5255 31.3569 55.0902 31.3569 54.6506C31.3569 54.211 31.2699 53.7757 31.1007 53.3699C30.9316 52.9641 30.6838 52.5958 30.3716 52.2862L16.0475 38L30.3716 23.7138C30.6838 23.4042 30.9316 23.0359 31.1007 22.6301C31.2699 22.2243 31.3569 21.789 31.3569 21.3494C31.3569 20.9098 31.2699 20.4745 31.1007 20.0687C30.9316 19.6629 30.6838 19.2946 30.3716 18.985ZM67.0146 35.6356L50.3587 18.985C50.0481 18.6745 49.6794 18.4282 49.2736 18.2602C48.8678 18.0922 48.4328 18.0057 47.9936 18.0057C47.1065 18.0057 46.2557 18.358 45.6284 18.985C45.3178 19.2955 45.0714 19.6641 44.9034 20.0698C44.7353 20.4755 44.6487 20.9103 44.6487 21.3494C44.6487 22.2362 45.0011 23.0867 45.6284 23.7138L59.9525 38L45.6284 52.2862C45.3162 52.5958 45.0684 52.9641 44.8993 53.3699C44.7301 53.7757 44.6431 54.211 44.6431 54.6506C44.6431 55.0902 44.7301 55.5255 44.8993 55.9313C45.0684 56.3371 45.3162 56.7054 45.6284 57.015C45.9381 57.3271 46.3065 57.5748 46.7125 57.7439C47.1184 57.913 47.5538 58 47.9936 58C48.4333 58 48.8687 57.913 49.2747 57.7439C49.6806 57.5748 50.049 57.3271 50.3587 57.015L67.0146 40.3644C67.3269 40.0548 67.5747 39.6865 67.7438 39.2807C67.9129 38.8749 68 38.4396 68 38C68 37.5604 67.9129 37.1251 67.7438 36.7193C67.5747 36.3135 67.3269 35.9452 67.0146 35.6356Z" fill="white"/>
</svg>
