<svg width="76" height="76" viewBox="0 0 76 76" fill="none" xmlns="http://www.w3.org/2000/svg">
<path d="M38.25 48.25C47.915 48.25 55.75 40.415 55.75 30.75C55.75 21.085 47.915 13.25 38.25 13.25C28.585 13.25 20.75 21.085 20.75 30.75C20.75 40.415 28.585 48.25 38.25 48.25Z" stroke="white" stroke-width="5"/>
<path d="M26.6276 45.75L25.0351 51.5575C23.4651 57.2875 22.6801 60.1525 23.7276 61.72C24.0951 62.27 24.5876 62.71 25.1601 63.0025C26.7901 63.8325 29.3101 62.52 34.3476 59.895C36.0226 59.02 36.8626 58.585 37.7526 58.49C38.0835 58.4569 38.4168 58.4569 38.7476 58.49C39.6376 58.585 40.4751 59.0225 42.1526 59.895C47.1901 62.52 49.7101 63.8325 51.3401 63.0025C51.9126 62.71 52.4051 62.27 52.7726 61.72C53.8226 60.1525 53.0351 57.2875 51.4651 51.5575L49.8726 45.75" stroke="white" stroke-width="5" stroke-linecap="round"/>
</svg>
