<svg width="76" height="76" viewBox="0 0 76 76" fill="none" xmlns="http://www.w3.org/2000/svg">
<path d="M38 8C30.0435 8 22.4129 11.1607 16.7868 16.7868C11.1607 22.4129 8 30.0435 8 38C8 45.9565 11.1607 53.5871 16.7868 59.2132C22.4129 64.8393 30.0435 68 38 68C45.9565 68 53.5871 64.8393 59.2132 59.2132C64.8393 53.5871 68 45.9565 68 38C68 30.0435 64.8393 22.4129 59.2132 16.7868C53.5871 11.1607 45.9565 8 38 8ZM11.7 40.2667H20.0667C20.2 43.3 20.6233 46.3133 21.3333 49.2667H14.1333C12.7934 46.4353 11.9694 43.3875 11.7 40.2667ZM40.2667 22.2667V11.9667C43.4789 13.1874 46.1185 15.5654 47.6667 18.6333C48.3511 19.7911 48.9511 20.9911 49.4667 22.2333L40.2667 22.2667ZM51 26.7667C51.7733 29.71 52.2333 32.7267 52.3667 35.7667H40.2667V26.7667H51ZM35.7333 11.9667V22.2667H26.5333C27.0472 21.0255 27.6488 19.8225 28.3333 18.6667C29.8749 15.5862 32.5153 13.1955 35.7333 11.9667ZM35.7333 26.7667V35.7667H23.6667C23.8 32.7267 24.26 29.71 25.0333 26.7667H35.7333ZM20.0667 35.7333H11.7C11.9694 32.6125 12.7934 29.5647 14.1333 26.7333H21.3333C20.6193 29.685 20.1951 32.6993 20.0667 35.7333ZM23.6667 40.2667H35.7333V49.2667H25.0333C24.2631 46.323 23.805 43.3063 23.6667 40.2667ZM35.7667 53.6V63.9C32.5544 62.6793 29.9148 60.3013 28.3667 57.2333C27.6821 56.0775 27.0806 54.8745 26.5667 53.6333L35.7667 53.6ZM40.2667 63.9V53.7667H49.4667C48.9528 55.0078 48.3512 56.2109 47.6667 57.3667C46.1185 60.4346 43.4789 62.8126 40.2667 64.0333V63.9ZM40.2667 49.1V40.1H52.3333C52.195 43.1397 51.7369 46.1563 50.9667 49.1H40.2667ZM55.9667 40.1H64.3333C64.064 43.2208 63.2399 46.2686 61.9 49.1H54.6667C55.3667 46.2 55.79 43.2433 55.9333 40.2667L55.9667 40.1ZM55.9667 35.6C55.8167 32.6208 55.3813 29.6628 54.6667 26.7667H61.8667C63.21 29.6 64.0333 32.6467 64.3 35.7667L55.9667 35.6ZM59.3 22.2667H53.3333C52.2548 19.2338 50.6899 16.3968 48.7 13.8667C52.8479 15.7286 56.4509 18.6202 59.1667 22.2667H59.3ZM27.3 13.8667C25.3101 16.3968 23.7452 19.2338 22.6667 22.2667H16.8333C19.5491 18.6202 23.1521 15.7286 27.3 13.8667ZM16.8 53.8667H22.6667C23.7452 56.8995 25.3101 59.7366 27.3 62.2667C23.1406 60.3767 19.5365 57.4498 16.8333 53.7667L16.8 53.8667ZM48.6667 62.2667C50.6566 59.7366 52.2215 56.8995 53.3 53.8667H59.1667C56.4343 57.4643 52.8328 60.3088 48.7 62.1333L48.6667 62.2667Z" fill="white"/>
</svg>
