<svg width="60" height="60" viewBox="0 0 60 60" fill="none" xmlns="http://www.w3.org/2000/svg">
<rect width="60" height="60" rx="30" fill="#A7B5B5" fill-opacity="0.26"/>
<path d="M13.0003 16.1862C12.9943 15.7662 13.0726 15.3492 13.2305 14.9599C13.3885 14.5707 13.6229 14.217 13.92 13.92C14.217 13.6229 14.5707 13.3885 14.9599 13.2305C15.3492 13.0726 15.7662 12.9943 16.1862 13.0003L29.6263 13.1708C30.9161 13.1865 32.1486 13.7064 33.0599 14.6193L46.1608 27.7184C46.92 28.4776 47.5931 29.5743 47.8695 30.7463C48.1495 31.9381 48.0418 33.3956 46.92 34.5156L34.5174 46.92C33.3956 48.0418 31.9381 48.1495 30.7463 47.8695C29.6019 47.5822 28.5559 46.9919 27.7184 46.1608L14.6193 33.0599C13.708 32.1475 13.1884 30.9157 13.1708 29.6263L13.0003 16.1862ZM23.0373 20.2965C22.7821 20.0587 22.4446 19.9293 22.0958 19.9354C21.7471 19.9416 21.4144 20.0829 21.1677 20.3295C20.9211 20.5761 20.7798 20.9089 20.7736 21.2576C20.7675 21.6064 20.8969 21.9439 21.1347 22.1991L22.4037 23.4699C22.6577 23.715 22.9978 23.8505 23.3508 23.8473C23.7037 23.844 24.0413 23.7023 24.2908 23.4526C24.5403 23.2029 24.6817 22.8652 24.6846 22.5122C24.6875 22.1593 24.5516 21.8193 24.3063 21.5655L23.0373 20.2965Z" fill="#CFD7D9"/>
</svg>
