<svg width="44" height="44" viewBox="0 0 44 44" fill="none" xmlns="http://www.w3.org/2000/svg">
<path d="M16.2857 15.7023C16.2859 15.3297 16.434 14.9723 16.6976 14.7088C16.9611 14.4453 17.3184 14.2972 17.691 14.2969L28.9606 14.2969C29.3332 14.2972 29.6905 14.4453 29.9541 14.7088C30.2176 14.9723 30.3657 15.3297 30.3659 15.7023L30.3659 26.9718C30.3533 27.3361 30.1998 27.6813 29.9376 27.9346C29.6754 28.1879 29.3251 28.3295 28.9606 28.3295C28.596 28.3295 28.2457 28.1879 27.9836 27.9346C27.7214 27.6813 27.5678 27.3361 27.5552 26.9718V19.0964L17.691 28.9606C17.4273 29.2243 17.0696 29.3724 16.6967 29.3724C16.3237 29.3724 15.966 29.2243 15.7023 28.9606C15.4386 28.6968 15.2904 28.3392 15.2904 27.9662C15.2904 27.5932 15.4386 27.2355 15.7023 26.9718L25.5665 17.1077L17.691 17.1077C17.3184 17.1075 16.9611 16.9593 16.6976 16.6958C16.434 16.4323 16.2859 16.075 16.2857 15.7023Z" fill="#93BAE9"/>
</svg>
