<svg width="140" height="140" viewBox="0 0 140 140" fill="none" xmlns="http://www.w3.org/2000/svg">
<path d="M89.145 10.3523C90.2092 11.6724 90.7517 13.4541 91.8323 17.0132L115.519 94.8182C106.623 90.1996 97.0735 86.9667 87.2014 85.2315L71.7817 33.1187C71.66 32.7021 71.4064 32.3363 71.059 32.0761C70.7115 31.816 70.2891 31.6757 69.8551 31.6762C69.4211 31.6767 68.999 31.818 68.6521 32.0789C68.3053 32.3398 68.0525 32.7062 67.9317 33.123L52.6969 85.2052C42.782 86.9344 33.1905 90.1723 24.2561 94.8062L48.0539 16.9968C49.1433 13.4421 49.6858 11.6637 50.7489 10.3435C51.6878 9.18066 52.909 8.27769 54.2959 7.7207C55.8633 7.0918 57.7259 7.0918 61.4436 7.0918H78.4438C82.1647 7.0918 84.0274 7.0918 85.6002 7.72508C86.9872 8.28346 88.2069 9.18795 89.145 10.3523Z" fill="url(#paint0_linear_287_2)"/>
<path d="M91.9778 98.5183C88.0731 101.86 80.279 104.137 71.3026 104.137C60.2886 104.137 51.0518 100.706 48.6029 96.0913C47.7279 98.736 47.5311 101.761 47.5311 103.697C47.5311 103.697 46.9546 113.186 53.5554 119.786C53.5553 118.972 53.7157 118.165 54.0274 117.412C54.3391 116.66 54.7961 115.976 55.3722 115.4C55.9483 114.824 56.6323 114.367 57.385 114.055C58.1377 113.744 58.9445 113.583 59.7592 113.584C65.6326 113.584 65.6293 118.706 65.625 122.867V123.235C65.625 129.549 69.4826 134.959 74.9689 137.24C74.1226 135.504 73.6842 133.596 73.687 131.664C73.687 125.64 77.2198 123.401 81.3301 120.795C84.5993 118.723 88.2306 116.42 90.7298 111.802C92.0792 109.314 92.7843 106.528 92.7806 103.697C92.7813 101.94 92.5105 100.193 91.9778 98.5183Z" fill="#FF5D01"/>
<path d="M91.9778 98.5183C88.0731 101.86 80.279 104.137 71.3026 104.137C60.2886 104.137 51.0518 100.706 48.6029 96.0913C47.7279 98.736 47.5311 101.761 47.5311 103.697C47.5311 103.697 46.9546 113.186 53.5554 119.786C53.5553 118.972 53.7157 118.165 54.0274 117.412C54.3391 116.66 54.7961 115.976 55.3722 115.4C55.9483 114.824 56.6323 114.367 57.385 114.055C58.1377 113.744 58.9445 113.583 59.7592 113.584C65.6326 113.584 65.6293 118.706 65.625 122.867V123.235C65.625 129.549 69.4826 134.959 74.9689 137.24C74.1226 135.504 73.6842 133.596 73.687 131.664C73.687 125.64 77.2198 123.401 81.3301 120.795C84.5993 118.723 88.2306 116.42 90.7298 111.802C92.0792 109.314 92.7843 106.528 92.7806 103.697C92.7813 101.94 92.5105 100.193 91.9778 98.5183Z" fill="url(#paint1_linear_287_2)"/>
<defs>
<linearGradient id="paint0_linear_287_2" x1="96.5778" y1="2.96541" x2="69.8857" y2="94.8173" gradientUnits="userSpaceOnUse">
<stop stop-color="#000014"/>
<stop offset="1" stop-color="#150426"/>
</linearGradient>
<linearGradient id="paint1_linear_287_2" x1="109.559" y1="71.3616" x2="86.4419" y2="119.756" gradientUnits="userSpaceOnUse">
<stop stop-color="#FF1639"/>
<stop offset="1" stop-color="#FF1639" stop-opacity="0"/>
</linearGradient>
</defs>
</svg>
