<svg width="140" height="140" viewBox="0 0 140 140" fill="none" xmlns="http://www.w3.org/2000/svg">
<path d="M52.5044 17.5H83.5757L51.3232 118.917C51.0242 119.936 50.4077 120.833 49.5633 121.478C48.7189 122.122 47.6908 122.48 46.6288 122.5H22.4438C21.093 122.459 19.8137 121.883 18.8868 120.9C17.9599 119.916 17.4612 118.605 17.5 117.254C17.5024 116.683 17.5909 116.115 17.7625 115.57L47.8188 21.0744C48.1188 20.0581 48.7347 19.1638 49.5772 18.5211C50.4197 17.8784 51.445 17.5208 52.5044 17.5Z" fill="#01579B"/>
<path d="M97.65 87.5H48.3875C47.7659 87.5172 47.1764 87.7801 46.7483 88.2312C46.3202 88.6822 46.0884 89.2846 46.1037 89.9062C46.1003 90.2371 46.1628 90.5653 46.2875 90.8717C46.4122 91.1782 46.5966 91.4568 46.83 91.6913L78.4875 121.074C79.385 121.978 80.6043 122.489 81.8781 122.496H109.773L97.65 87.5Z" fill="#1976D2"/>
<path d="M92.1856 21.07C91.885 20.0552 91.2694 19.1624 90.4279 18.5206C89.5863 17.8788 88.5625 17.5214 87.5043 17.5H52.8762C53.9353 17.5193 54.9607 17.8752 55.804 18.5163C56.6472 19.1574 57.2644 20.0503 57.5662 21.0656L87.6137 115.561C88.0446 116.857 87.9628 118.268 87.385 119.505C86.8073 120.742 85.7775 121.71 84.5075 122.211C83.999 122.393 83.4636 122.487 82.9237 122.491H117.552C118.903 122.451 120.182 121.877 121.11 120.894C122.038 119.911 122.538 118.601 122.5 117.25C122.498 116.679 122.409 116.111 122.237 115.566L92.19 21.0744L92.1856 21.07Z" fill="#29B6F6"/>
</svg>
