<svg width="140" height="140" viewBox="0 0 140 140" fill="none" xmlns="http://www.w3.org/2000/svg">
<path d="M126.219 33.5781L73.3906 3.17188C72.5156 2.625 71.3125 2.40625 70 2.40625C68.6875 2.40625 67.4844 2.73438 66.6094 3.17188L14.1094 33.6875C12.25 34.7812 10.9375 37.5156 10.9375 39.5938V100.516C10.9375 101.719 11.1562 103.141 12.0312 104.344L128.844 36.5312C128.188 35.2188 127.203 34.2344 126.219 33.5781Z" fill="#9B4F96"/>
<path d="M11.7031 104.234C12.25 105.109 13.0156 105.875 13.7813 106.312L66.5 136.828C67.375 137.375 68.5781 137.594 69.8906 137.594C71.2031 137.594 72.4062 137.266 73.2812 136.828L125.781 106.312C127.641 105.219 128.953 102.484 128.953 100.406V39.4844C128.953 38.5 128.844 37.4062 128.297 36.4219L11.7031 104.234Z" fill="#68217A"/>
<path d="M93.2969 83.2344C88.7031 91.3281 79.9531 96.7969 70 96.7969C55.2344 96.7969 43.2031 84.7656 43.2031 70C43.2031 55.2344 55.2344 43.2031 70 43.2031C79.9531 43.2031 88.7031 48.6719 93.2969 56.875L107.516 48.6719C100.078 35.6562 86.0781 26.7969 70 26.7969C46.1562 26.7969 26.7969 46.1562 26.7969 70C26.7969 93.8438 46.1562 113.203 70 113.203C85.9688 113.203 99.9688 104.453 107.406 91.5469L93.2969 83.2344ZM106.094 72.4062L107.078 67.7031H102.484V62.5625H108.062L109.375 55.7812H114.734L113.422 62.4531H117.578L118.891 55.7812H124.141L122.828 62.4531H125.453V67.5938H121.844L120.859 72.2969H125.453V77.4375H119.875L118.562 84H113.203L114.516 77.4375H110.359L109.047 84H103.797L105.109 77.4375H102.484V72.2969H106.094V72.4062ZM111.344 72.4062H115.5L116.484 67.7031H112.328L111.344 72.4062Z" fill="white"/>
</svg>
