<svg width="135" height="135" viewBox="0 0 135 135" fill="none" xmlns="http://www.w3.org/2000/svg">
<g clip-path="url(#clip0_75_471)">
<path d="M47.9883 136.055C60.5391 136.055 70.6641 125.93 70.6641 113.379V90.7031H47.9883C35.4375 90.7031 25.3125 100.828 25.3125 113.379C25.3125 125.93 35.4375 136.055 47.9883 136.055Z" fill="#0ACF83"/>
<path d="M25.3125 68.0273C25.3125 55.4766 35.4375 45.3516 47.9883 45.3516H70.6641V90.7031H47.9883C35.4375 90.7031 25.3125 80.5781 25.3125 68.0273Z" fill="#A259FF"/>
<path d="M25.3125 22.6758C25.3125 10.125 35.4375 0 47.9883 0H70.6641V45.3516H47.9883C35.4375 45.3516 25.3125 35.2266 25.3125 22.6758Z" fill="#F24E1E"/>
<path d="M70.6641 0H93.3398C105.891 0 116.016 10.125 116.016 22.6758C116.016 35.2266 105.891 45.3516 93.3398 45.3516H70.6641V0Z" fill="#FF7262"/>
<path d="M116.016 68.0273C116.016 80.5781 105.891 90.7031 93.3398 90.7031C80.7891 90.7031 70.6641 80.5781 70.6641 68.0273C70.6641 55.4766 80.7891 45.3516 93.3398 45.3516C105.891 45.3516 116.016 55.4766 116.016 68.0273Z" fill="#1ABCFE"/>
</g>
<defs>
<clipPath id="clip0_75_471">
<rect width="135" height="135" fill="white"/>
</clipPath>
</defs>
</svg>
