<svg width="140" height="140" viewBox="0 0 140 140" fill="none" xmlns="http://www.w3.org/2000/svg">
<g clip-path="url(#clip0_75_445)">
<path d="M19.1122 112.958L36.3442 2.69277C36.4474 2.03379 36.7551 1.4239 37.2236 0.94922C37.6922 0.474544 38.2981 0.15908 38.9557 0.0473864C39.6133 -0.0643072 40.2894 0.0334141 40.8884 0.326748C41.4875 0.620082 41.9792 1.0942 42.2942 1.68214L60.1158 34.9212L67.2186 21.3959C67.4887 20.8829 67.8937 20.4533 68.3901 20.1537C68.8864 19.8541 69.4552 19.6957 70.035 19.6957C70.6148 19.6957 71.1835 19.8541 71.6799 20.1537C72.1763 20.4533 72.5813 20.8829 72.8514 21.3959L120.944 112.958H19.1122Z" fill="#FFA000"/>
<path d="M78.6439 70.0054L60.107 34.9048L19.1122 112.958L78.6439 70.0054Z" fill="#F57C00"/>
<path d="M120.944 112.958L107.745 31.2857C107.648 30.71 107.394 30.1722 107.011 29.7312C106.628 29.2902 106.132 28.963 105.575 28.7854C105.019 28.6083 104.425 28.5874 103.858 28.7252C103.291 28.8629 102.773 29.1539 102.36 29.5664L19.1122 112.957L65.1755 138.789C66.598 139.583 68.2002 140 69.8294 140C71.4586 140 73.0607 139.583 74.4833 138.789L120.944 112.958Z" fill="#FFCA28"/>
<path d="M107.745 31.2857C107.648 30.71 107.394 30.1722 107.011 29.7312C106.628 29.2902 106.132 28.963 105.575 28.7854C105.019 28.6081 104.425 28.5871 103.858 28.7246C103.291 28.8622 102.773 29.153 102.36 29.5653L85.8364 46.1323L72.8438 21.3961C72.5737 20.883 72.1686 20.4535 71.6722 20.1539C71.1759 19.8542 70.6071 19.6959 70.0274 19.6959C69.4476 19.6959 68.8788 19.8542 68.3824 20.1539C67.8861 20.4535 67.481 20.883 67.2109 21.3961L60.1081 34.9203L42.2866 1.6823C41.9712 1.09355 41.4786 0.618938 40.8785 0.325671C40.2784 0.0324038 39.6013 -0.0646541 38.943 0.0482416C38.2851 0.161106 37.6794 0.477928 37.2115 0.953901C36.7436 1.42987 36.4371 2.04091 36.3355 2.70059L19.1122 112.958H19.0564L19.1111 113.022L19.565 113.245L102.336 30.3779C102.748 29.9633 103.267 29.6705 103.836 29.5317C104.404 29.3928 105 29.4133 105.557 29.5909C106.115 29.7684 106.612 30.0962 106.996 30.5382C107.379 30.9802 107.633 31.5193 107.73 32.0962L120.817 113.037L120.944 112.957L107.745 31.2857ZM19.2631 112.807L36.3431 3.48043C36.4446 2.8204 36.7511 2.20901 37.2193 1.73281C37.6874 1.2566 38.2935 0.939712 38.9517 0.826992C39.6101 0.714191 40.2874 0.811412 40.8875 1.10488C41.4875 1.39835 41.9801 1.87319 42.2953 2.46215L60.1147 35.7012L67.2186 22.1759C67.4887 21.6629 67.8938 21.2333 68.3901 20.9337C68.8865 20.6341 69.4552 20.4757 70.035 20.4757C70.6148 20.4757 71.1836 20.6341 71.6799 20.9337C72.1763 21.2333 72.5813 21.6629 72.8514 22.1759L85.5805 46.3861L19.2609 112.807H19.2631Z" fill="white" fill-opacity="0.2"/>
<path opacity="0.2" d="M74.4833 138.009C73.0607 138.803 71.4586 139.22 69.8294 139.22C68.2002 139.22 66.5981 138.803 65.1755 138.009L19.2216 112.251L19.11 112.959L65.1733 138.783C66.5959 139.577 68.198 139.994 69.8272 139.994C71.4564 139.994 73.0585 139.577 74.4811 138.783L120.944 112.959L120.823 112.226L74.4811 138.011L74.4833 138.009Z" fill="#A52714"/>
</g>
<defs>
<clipPath id="clip0_75_445">
<rect width="140" height="140" fill="white"/>
</clipPath>
</defs>
</svg>
