<svg width="140" height="140" viewBox="0 0 140 140" fill="none" xmlns="http://www.w3.org/2000/svg">
<g clip-path="url(#clip0_75_354)">
<path d="M107.188 0H32.8125C14.6907 0 0 14.6907 0 32.8125V107.188C0 125.309 14.6907 140 32.8125 140H107.188C125.309 140 140 125.309 140 107.188V32.8125C140 14.6907 125.309 0 107.188 0Z" fill="#E14E1D"/>
<path d="M26.25 20.7812L30.9586 73.6055H91.5031L89.4715 96.2626L69.9776 101.533L50.5203 96.2702L49.2193 81.7223H31.6859L34.1934 109.767L69.9738 119.704L105.8 109.767L110.603 56.1395H46.935L45.3365 38.2512H112.185L113.75 20.7812H26.25Z" fill="white"/>
<path d="M70 20.7812H26.25L30.9586 73.6055H70V56.1395H46.935L45.3365 38.2512H70V20.7812ZM70 101.526L69.9776 101.533L50.5203 96.2702L49.2193 81.7223H31.6859L34.1934 109.767L69.9738 119.704L70.0005 119.697L70 101.526Z" fill="#EBEBEB"/>
</g>
<defs>
<clipPath id="clip0_75_354">
<rect width="140" height="140" fill="white"/>
</clipPath>
</defs>
</svg>
