<svg width="140" height="140" viewBox="0 0 140 140" fill="none" xmlns="http://www.w3.org/2000/svg">
<path d="M52.0811 107.319C52.0811 107.319 46.8672 110.353 55.7966 111.376C66.616 112.612 72.1449 112.435 84.0646 110.182C84.0646 110.182 87.2047 112.145 91.5819 113.847C64.8517 125.299 31.0888 113.183 52.0811 107.319ZM48.813 92.3726C48.813 92.3726 42.9636 96.7027 51.9006 97.628C63.4583 98.8213 72.5835 98.9187 88.3816 95.878C88.3816 95.878 90.5614 98.0929 93.9947 99.3026C61.6831 108.753 25.6944 100.046 48.813 92.3726Z" fill="#0074BD"/>
<path d="M76.3459 67.0151C82.9357 74.6002 74.6178 81.4198 74.6178 81.4198C74.6178 81.4198 91.3401 72.789 83.662 61.9762C76.4881 51.8973 70.9887 46.8912 100.763 29.623C100.763 29.6241 54.0257 41.2934 76.3459 67.0151Z" fill="#EA2D2E"/>
<path d="M111.697 118.375C111.697 118.375 115.557 121.558 107.445 124.018C92.0205 128.691 43.2348 130.099 29.6855 124.205C24.8172 122.085 33.95 119.146 36.8233 118.526C39.819 117.878 41.5297 117.996 41.5297 117.996C36.1123 114.182 6.51546 125.488 26.4983 128.731C80.99 137.564 125.829 124.753 111.697 118.375ZM54.5912 76.884C54.5912 76.884 29.7784 82.7782 45.8051 84.9209C52.5733 85.8265 66.0592 85.6187 78.6297 84.5643C88.9 83.7013 99.2064 81.8584 99.2064 81.8584C99.2064 81.8584 95.5883 83.4104 92.9676 85.1976C67.7655 91.8268 19.0914 88.7391 33.1056 81.9623C44.9531 76.2321 54.5912 76.884 54.5912 76.884ZM99.1036 101.764C124.72 88.4559 112.875 75.6666 104.607 77.3893C102.586 77.8104 101.679 78.1768 101.679 78.1768C101.679 78.1768 102.432 76.9966 103.867 76.4891C120.222 70.7415 132.798 93.4455 98.5917 102.438C98.5917 102.436 98.9844 102.081 99.1036 101.764Z" fill="#0074BD"/>
<path d="M83.6621 1.73584C83.6621 1.73584 97.8458 15.9283 70.2057 37.7454C48.0397 55.2519 65.1514 65.2313 70.198 76.638C57.2578 64.9644 47.7663 54.6865 54.133 45.1216C63.4824 31.0844 89.3835 24.2758 83.6621 1.73584Z" fill="#EA2D2E"/>
<path d="M57.1091 137.836C81.6922 139.407 119.453 136.961 120.346 125.327C120.346 125.327 118.628 129.737 100.028 133.236C79.0431 137.187 53.1563 136.726 37.8077 134.192C37.8077 134.193 40.9522 136.796 57.1091 137.836Z" fill="#0074BD"/>
</svg>
