<svg width="140" height="140" viewBox="0 0 140 140" fill="none" xmlns="http://www.w3.org/2000/svg">
<g clip-path="url(#clip0_75_359)">
<path d="M107.188 0H32.8125C14.6907 0 0 14.6907 0 32.8125V107.188C0 125.309 14.6907 140 32.8125 140H107.188C125.309 140 140 125.309 140 107.188V32.8125C140 14.6907 125.309 0 107.188 0Z" fill="#F0DB4F"/>
<path d="M36.8112 116.994L47.5245 110.51C49.5917 114.175 51.4718 117.276 55.9819 117.276C60.305 117.276 63.0306 115.585 63.0306 109.007V64.2737H76.1873V109.193C76.1873 122.819 68.1997 129.022 56.5457 129.022C46.0211 129.022 39.912 123.571 36.8107 116.993M83.3333 115.584L94.0455 109.382C96.8657 113.987 100.531 117.37 107.015 117.37C112.466 117.37 115.942 114.645 115.942 110.886C115.942 106.375 112.371 104.777 106.357 102.146L103.068 100.736C93.5763 96.6958 87.2796 91.6208 87.2796 80.9075C87.2796 71.0397 94.798 63.5212 106.545 63.5212C114.909 63.5212 120.924 66.435 125.246 74.0469L115.003 80.6253C112.747 76.5844 110.305 74.987 106.545 74.987C102.692 74.987 100.249 77.4305 100.249 80.6253C100.249 84.5721 102.692 86.1701 108.33 88.6141L111.619 90.0233C122.802 94.8167 129.099 99.7025 129.099 110.697C129.099 122.539 119.796 129.023 107.297 129.023C95.0802 129.023 87.1861 123.197 83.3333 115.584Z" fill="#323330"/>
</g>
<defs>
<clipPath id="clip0_75_359">
<rect width="140" height="140" fill="white"/>
</clipPath>
</defs>
</svg>
