<svg width="140" height="140" viewBox="0 0 140 140" fill="none" xmlns="http://www.w3.org/2000/svg">
<g clip-path="url(#clip0_75_427)">
<path d="M128.721 107.452C121.095 107.243 115.271 107.956 110.289 110.054C108.875 110.652 106.62 110.666 106.389 112.439C107.167 113.254 107.286 114.472 107.906 115.476C109.094 117.394 111.102 119.974 112.892 121.33C114.849 122.804 116.866 124.384 118.964 125.662C122.698 127.939 126.864 129.239 130.453 131.516C132.572 132.861 134.673 134.553 136.742 136.07C137.763 136.818 138.451 137.984 139.775 138.454V138.241C139.078 137.353 138.899 136.13 138.258 135.204L135.438 132.384C132.682 128.727 129.183 125.514 125.466 122.848C122.501 120.716 115.862 117.841 114.627 114.393L114.41 114.175C116.512 113.936 118.973 113.176 120.916 112.654C124.176 111.782 127.09 112.009 130.453 111.137L135.007 109.839V108.971C133.306 107.228 132.093 104.917 130.239 103.336C125.382 99.2009 120.084 95.0731 114.628 91.63C111.603 89.7203 107.865 88.4767 104.657 86.8579C103.576 86.3154 101.683 86.0289 100.97 85.1232C99.2862 82.9784 98.3675 80.2571 97.0692 77.7535C94.348 72.5112 91.677 66.7909 89.2631 61.2751C87.6181 57.5159 86.5462 53.807 84.4955 50.436C74.6517 34.2518 64.0565 24.4814 47.6415 14.8804C44.147 12.8384 39.9426 12.0312 35.4987 10.9757L28.3423 10.5437C26.8855 9.93667 25.3728 8.15495 24.0056 7.2876C18.5686 3.84995 4.61889 -3.62255 0.589514 6.2037C-1.95236 12.4031 4.39248 18.4526 6.66092 21.5971C8.25451 23.7978 10.2922 26.2707 11.4286 28.7492C12.1811 30.381 12.309 32.0129 12.95 33.7356C14.5228 37.9826 15.8976 42.6048 17.9364 46.527C18.9656 48.5132 20.102 50.6034 21.4058 52.3807C22.2009 53.4701 23.5714 53.9535 23.7901 55.6324C22.4481 57.5082 22.3715 60.4176 21.6201 62.7889C18.2317 73.4748 19.5136 86.7529 24.4398 94.6574C25.9525 97.0889 29.5159 102.292 34.4115 100.297C38.6969 98.549 37.7398 93.1448 38.9659 88.3728C39.2437 87.2921 39.0731 86.497 39.6156 85.7707V85.9884L43.5203 93.7901C46.4089 98.4429 51.5309 103.305 55.8764 106.586C58.1284 108.287 59.9014 111.226 62.8151 112.221V112.003H62.5975C62.0331 111.123 61.1494 110.76 60.4319 110.055C58.7355 108.389 56.8476 106.321 55.4455 104.416C51.4937 99.0543 48.0025 93.1831 44.824 87.0745C43.3026 84.1564 41.9825 80.9396 40.7006 77.9701C40.2051 76.825 40.2139 75.0903 39.1836 74.5007C37.7825 76.6751 35.7142 78.436 34.6292 81.0031C32.8989 85.109 32.6725 90.1206 32.0315 95.3115C31.6509 95.4482 31.8183 95.3542 31.5962 95.5292C28.5753 94.7985 27.5165 91.6923 26.3922 89.0224C23.555 82.2806 23.0256 71.424 25.5248 63.6573C26.1701 61.6492 29.0926 55.3262 27.9092 53.4679C27.3448 51.6184 25.4822 50.5454 24.4398 49.1312C23.1492 47.3834 21.864 45.081 20.9705 43.0598C18.6462 37.8043 17.5656 31.9003 15.1167 26.5857C13.9464 24.0439 11.9722 21.4714 10.349 19.216C8.54983 16.7124 6.53842 14.8662 5.14498 11.842C4.64951 10.7657 3.97905 9.04307 4.70967 7.94167C4.94483 7.19354 5.27405 6.88182 6.01233 6.63901C7.26795 5.66885 10.7723 6.96385 12.0794 7.50635C15.5575 8.9501 18.4581 10.326 21.4058 12.2784C22.8156 13.2135 24.2473 15.0259 25.9558 15.5301H27.9081C30.9586 16.2312 34.3765 15.7434 37.2301 16.6107C42.2712 18.1442 46.7873 20.5285 50.8889 23.1174C63.3817 31.0089 73.6017 42.2362 80.5908 55.639C81.7141 57.797 82.2019 59.8521 83.1928 62.1413C85.1878 66.7559 87.7045 71.5028 89.6908 76.0189C91.677 80.5174 93.6086 85.0642 96.4151 88.8103C97.8895 90.7801 103.58 91.8356 106.169 92.9293C107.985 93.6938 110.959 94.4934 112.676 95.5314C115.957 97.5099 119.136 99.8681 122.217 102.034C123.75 103.119 128.484 105.499 128.719 107.455L128.721 107.452ZM31.8095 24.8521C30.2203 24.8226 29.097 25.0228 27.9092 25.2842V25.5018H28.1225C28.8826 27.0571 30.2203 28.0612 31.1598 29.4021L33.3255 33.9565L33.5431 33.7432C34.8851 32.7949 35.4998 31.2823 35.4911 28.9712C34.953 28.4025 34.8764 27.6981 34.4061 27.0189C33.7914 26.1176 32.5905 25.609 31.8084 24.8532L31.8095 24.8521Z" fill="#00618A"/>
</g>
<defs>
<clipPath id="clip0_75_427">
<rect width="140" height="140" fill="white"/>
</clipPath>
</defs>
</svg>
