<svg width="140" height="140" viewBox="0 0 140 140" fill="none" xmlns="http://www.w3.org/2000/svg">
<path d="M0 70C0 90.3361 31.3403 106.823 70 106.823C108.66 106.823 140 90.3361 140 70C140 49.6639 108.659 33.1768 70 33.1768C31.3414 33.1768 0 49.6639 0 70Z" fill="url(#paint0_radial_79_56)"/>
<path d="M70 104.089C107.149 104.089 137.266 88.8257 137.266 70C137.266 51.1722 107.149 35.9111 70 35.9111C32.8508 35.9111 2.73438 51.1722 2.73438 70C2.73438 88.8257 32.8508 104.089 70 104.089Z" fill="#777BB3"/>
<path d="M38.0318 74.2263C41.0867 74.2263 43.3661 73.6631 44.8087 72.5529C46.2372 71.4526 47.2226 69.5484 47.74 66.8928C48.2212 64.4099 48.0375 62.6774 47.1931 61.7412C46.3312 60.7853 44.4664 60.3007 41.6511 60.3007H36.7686L34.0637 74.2263H38.0318ZM22.0642 91.3796C21.9522 91.3795 21.8416 91.3545 21.7403 91.3066C21.6391 91.2586 21.5497 91.1889 21.4786 91.1023C21.4075 91.0158 21.3565 90.9145 21.3291 90.8059C21.3018 90.6973 21.2988 90.5839 21.3204 90.474L28.4922 53.5731C28.526 53.4006 28.6187 53.2451 28.7543 53.1333C28.8899 53.0214 29.0601 52.96 29.2359 52.9595H44.695C49.5534 52.9595 53.1693 54.2785 55.4433 56.8806C57.727 59.4946 58.4336 63.1521 57.54 67.747C57.1758 69.6184 56.5501 71.3564 55.6806 72.9139C54.7757 74.516 53.6207 75.9634 52.2593 77.2013C50.5848 78.7676 48.6893 79.9051 46.6298 80.5734C44.6042 81.234 42.0011 81.5687 38.897 81.5687H32.6364L30.8492 90.7649C30.8154 90.938 30.7226 91.094 30.5865 91.2061C30.4504 91.3183 30.2796 91.3796 30.1032 91.3796H22.0642Z" fill="black"/>
<path d="M37.3954 61.0597H41.6511C45.0494 61.0597 46.2296 61.8056 46.631 62.2508C47.2949 62.988 47.4218 64.5444 46.993 66.7483C46.5129 69.2169 45.6225 70.968 44.3461 71.9502C43.0402 72.9564 40.914 73.4661 38.0319 73.4661H34.9847L37.3954 61.0597ZM44.695 52.2003H29.2371C28.8846 52.2003 28.543 52.3229 28.2709 52.5469C27.9987 52.771 27.8129 53.0826 27.7452 53.4286L20.5735 90.3306C20.5311 90.5504 20.5378 90.7769 20.5931 90.9938C20.6484 91.2107 20.7509 91.4128 20.8934 91.5855C21.0358 91.7582 21.2146 91.8973 21.417 91.9929C21.6194 92.0886 21.8404 92.1383 22.0643 92.1386H30.1033C30.4558 92.1383 30.7972 92.0155 31.0691 91.7912C31.3411 91.567 31.5267 91.2552 31.5941 90.9092L33.2621 82.3277H38.896C42.081 82.3277 44.7629 81.9798 46.8661 81.2952C49.0285 80.593 51.018 79.4019 52.779 77.7547C54.1971 76.4635 55.4004 74.9545 56.3435 73.2845C57.2524 71.6581 57.9065 69.8425 58.2849 67.8913C59.2255 63.0536 58.461 59.1806 56.0143 56.3806C53.5905 53.6058 49.7821 52.1992 44.695 52.1992V52.2003ZM33.1418 74.9842H38.0319C41.2731 74.9849 43.6866 74.3743 45.2725 73.1522C46.8585 71.9316 47.9296 69.8932 48.486 67.037C49.0168 64.2939 48.7744 62.3587 47.7586 61.2314C46.7415 60.1041 44.7056 59.5405 41.6511 59.5405H36.143L33.1418 74.9842ZM44.6961 53.7163C49.3468 53.7163 52.7385 54.9369 54.8713 57.3781C57.0041 59.8194 57.6458 63.2268 56.7963 67.6003C56.4448 69.4028 55.8524 71.05 55.019 72.5419C54.1841 74.0352 53.0936 75.4013 51.7475 76.6402C50.1434 78.1422 48.3598 79.2123 46.3969 79.8503C44.4347 80.4891 41.9348 80.8081 38.8971 80.8073H32.0108L30.1044 90.6183H22.0654L29.2382 53.7163H44.6961Z" fill="white"/>
<path d="M75.9708 81.5686C75.8587 81.5687 75.7479 81.544 75.6465 81.4963C75.5451 81.4486 75.4555 81.379 75.3842 81.2925C75.3129 81.206 75.2616 81.1048 75.234 80.9961C75.2065 80.8875 75.2033 80.7741 75.2248 80.6641L78.3967 64.3366C78.6997 62.7834 78.6253 61.67 78.1889 61.1975C77.9209 60.9098 77.1181 60.4275 74.7436 60.4275H68.9948L65.007 80.955C64.9728 81.1279 64.8796 81.2834 64.7433 81.3952C64.607 81.5069 64.4362 81.5678 64.26 81.5675H56.2865C56.1745 81.5676 56.0639 81.5429 55.9625 81.4952C55.8612 81.4476 55.7716 81.3781 55.7002 81.2917C55.6288 81.2054 55.5774 81.1044 55.5496 80.9959C55.5218 80.8874 55.5184 80.7741 55.5395 80.6641L62.7123 43.762C62.7463 43.5892 62.8392 43.4335 62.9753 43.3215C63.1114 43.2096 63.2821 43.1484 63.4583 43.1484H71.4317C71.5437 43.1484 71.6543 43.173 71.7557 43.2207C71.8571 43.2684 71.9466 43.3379 72.018 43.4242C72.0894 43.5105 72.1408 43.6115 72.1686 43.7201C72.1964 43.8286 72.1998 43.9419 72.1787 44.0519L70.4484 52.9594H76.6314C81.3422 52.9594 84.5359 53.7884 86.3964 55.498C88.2918 57.2403 88.8847 60.0261 88.1551 63.7809L84.8181 80.955C84.7839 81.1277 84.6909 81.2831 84.5548 81.3948C84.4188 81.5065 84.2482 81.5676 84.0722 81.5675L75.9708 81.5686Z" fill="black"/>
<path d="M71.4328 42.3882H63.4582C63.1056 42.3883 62.7639 42.5109 62.4917 42.7352C62.2196 42.9595 62.0338 43.2714 61.9664 43.6176L54.7946 80.5185C54.7521 80.7384 54.7587 80.965 54.8139 81.182C54.8691 81.3991 54.9716 81.6013 55.114 81.7741C55.2564 81.9469 55.4353 82.0862 55.6378 82.1818C55.8403 82.2775 56.0615 82.3273 56.2854 82.3276H64.26C64.6126 82.3275 64.9543 82.2048 65.2265 81.9805C65.4986 81.7562 65.6843 81.4443 65.7518 81.0982L69.6204 61.1865H74.7414C77.1126 61.1865 77.6114 61.6929 77.63 61.7158C77.7743 61.869 77.9636 62.5854 77.6507 64.1921L74.4789 80.5185C74.4363 80.7385 74.4429 80.9651 74.4982 81.1823C74.5534 81.3994 74.656 81.6017 74.7986 81.7745C74.9411 81.9474 75.1201 82.0866 75.3228 82.1822C75.5254 82.2778 75.7467 82.3274 75.9707 82.3276H84.0732C84.4257 82.3272 84.7671 82.2044 85.0391 81.9802C85.311 81.7559 85.4966 81.4441 85.564 81.0982L88.901 63.9263C89.6831 59.8947 89.0137 56.8716 86.9104 54.939C84.9023 53.0949 81.5401 52.1991 76.6314 52.1991H71.3704L72.9246 44.1983C72.9674 43.9783 72.9609 43.7515 72.9057 43.5342C72.8505 43.3169 72.748 43.1146 72.6054 42.9416C72.4628 42.7686 72.2838 42.6293 72.0811 42.5336C71.8783 42.4379 71.6569 42.3883 71.4328 42.3882ZM71.4328 43.9085L69.5264 53.7172H76.6314C81.1019 53.7172 84.1852 54.4975 85.8812 56.0579C87.5787 57.6168 88.0884 60.1434 87.4103 63.6376L84.0721 80.8083H75.9707L79.1437 64.4808C79.5046 62.6236 79.3716 61.3571 78.7445 60.6812C78.1174 60.0059 76.7838 59.6683 74.7435 59.6683H68.3681L64.26 80.8072H56.2843L63.4571 43.9052H71.4328V43.9085Z" fill="white"/>
<path d="M100.774 74.2263C103.829 74.2263 106.109 73.6631 107.553 72.5529C108.979 71.4526 109.966 69.5484 110.483 66.8928C110.964 64.4099 110.782 62.6774 109.936 61.7412C109.074 60.7853 107.209 60.3007 104.394 60.3007H99.5127L96.8057 74.2263H100.774ZM84.8094 91.3796C84.6972 91.3798 84.5864 91.3551 84.4848 91.3073C84.3833 91.2595 84.2937 91.1898 84.2224 91.1032C84.151 91.0166 84.0998 90.9152 84.0723 90.8064C84.0448 90.6976 84.0418 90.5841 84.0635 90.474L91.2352 53.5731C91.2692 53.4002 91.3621 53.2445 91.4982 53.1326C91.6342 53.0206 91.805 52.9595 91.9811 52.9595H107.439C112.298 52.9595 115.913 54.2785 118.186 56.8806C120.471 59.4946 121.177 63.1521 120.283 67.747C119.941 69.5568 119.314 71.3008 118.425 72.9139C117.52 74.516 116.365 75.9634 115.003 77.2013C113.33 78.7676 111.432 79.9051 109.374 80.5734C107.348 81.234 104.745 81.5687 101.64 81.5687H95.3805L93.5944 90.7649C93.5606 90.9382 93.4676 91.0943 93.3313 91.2065C93.195 91.3186 93.0239 91.3798 92.8474 91.3796H84.8094Z" fill="black"/>
<path d="M100.138 61.0597H104.394C107.792 61.0597 108.972 61.8056 109.373 62.2508C110.04 62.988 110.165 64.5444 109.737 66.7483C109.256 69.2169 108.365 70.968 107.089 71.9502C105.782 72.9564 103.656 73.4661 100.775 73.4661H97.7276L100.138 61.0597ZM107.438 52.2003H91.98C91.6277 52.2006 91.2864 52.3232 91.0145 52.5473C90.7426 52.7713 90.5569 53.0828 90.4892 53.4286L83.3164 90.3306C83.274 90.5505 83.2808 90.7771 83.3361 90.9941C83.3915 91.2111 83.4941 91.4132 83.6366 91.5859C83.7792 91.7586 83.9581 91.8977 84.1606 91.9933C84.3632 92.0888 84.5843 92.1385 84.8083 92.1386H92.8473C93.1998 92.1383 93.5412 92.0155 93.8132 91.7912C94.0851 91.567 94.2707 91.2552 94.3381 90.9092L96.0061 82.3277H101.639C104.823 82.3277 107.506 81.9798 109.608 81.2952C111.771 80.593 113.761 79.4019 115.523 77.7536C116.941 76.4627 118.144 74.9541 119.086 73.2845C119.996 71.6581 120.648 69.8425 121.028 67.8913C121.968 63.0536 121.205 59.1806 118.757 56.3806C116.333 53.6058 112.526 52.1992 107.437 52.1992L107.438 52.2003ZM95.8847 74.9842H100.774C104.015 74.9849 106.429 74.3743 108.017 73.1522C109.602 71.9316 110.673 69.8932 111.228 67.037C111.761 64.2939 111.518 62.3587 110.5 61.2314C109.483 60.1041 107.447 59.5405 104.394 59.5405H98.887L95.8847 74.9842ZM107.438 53.7163C112.089 53.7163 115.48 54.9369 117.613 57.3781C119.746 59.8194 120.387 63.2268 119.537 67.6003C119.187 69.4028 118.595 71.05 117.761 72.5419C116.927 74.0352 115.836 75.4013 114.488 76.6402C112.884 78.1422 111.101 79.2123 109.138 79.8503C107.176 80.4891 104.677 80.8081 101.639 80.8073H94.7537L92.8452 90.6183H84.8061L91.9789 53.7163H107.438Z" fill="white"/>
<defs>
<radialGradient id="paint0_radial_79_56" cx="0" cy="0" r="1" gradientUnits="userSpaceOnUse" gradientTransform="translate(42.0284 46.1224) scale(91.9202 91.9202)">
<stop stop-color="#AEB2D5"/>
<stop offset="0.3" stop-color="#AEB2D5"/>
<stop offset="0.75" stop-color="#484C89"/>
<stop offset="1" stop-color="#484C89"/>
</radialGradient>
</defs>
</svg>
