<svg width="140" height="140" viewBox="0 0 140 140" fill="none" xmlns="http://www.w3.org/2000/svg">
<path d="M57.5166 11.6667C53.0919 11.6667 48.8485 13.4245 45.7197 16.5532C42.591 19.6819 40.8333 23.9254 40.8333 28.3501V38.1501H65.8583C68.1333 38.1501 70 41.4751 70 43.7501H28.35C23.9253 43.7501 19.6818 45.5078 16.5531 48.6365C13.4243 51.7652 11.6666 56.0087 11.6666 60.4334V82.4892C11.6666 86.9139 13.4243 91.1574 16.5531 94.2861C19.6818 97.4149 23.9253 99.1726 28.35 99.1726H35.2333V83.5392C35.2256 81.3511 35.65 79.183 36.482 77.1592C37.3141 75.1354 38.5374 73.2958 40.082 71.7459C41.6265 70.1959 43.4618 68.9661 45.4827 68.127C47.5035 67.2878 49.6702 66.8559 51.8583 66.8559H82.4833C91.7 66.8559 99.1666 59.4417 99.1666 50.2251V28.3501C99.1666 23.9254 97.4089 19.6819 94.2802 16.5532C91.1515 13.4245 86.908 11.6667 82.4833 11.6667H57.5166ZM53.3166 21.0584C55.65 21.0584 57.5166 21.7584 57.5166 25.2001C57.5166 28.6417 55.65 30.3976 53.3166 30.3976C51.0416 30.3976 49.175 28.6476 49.175 25.2059C49.175 21.7642 51.0416 21.0584 53.3166 21.0584Z" fill="#0288D1"/>
<path d="M104.761 40.8333V56.4666C104.768 58.6542 104.343 60.8217 103.51 62.8448C102.678 64.8679 101.455 66.7068 99.9101 68.2562C98.3657 69.8055 96.5306 71.0348 94.5101 71.8736C92.4897 72.7123 90.3235 73.1441 88.1359 73.1441H57.5167C55.3286 73.1364 53.1605 73.5608 51.1367 74.3928C49.1129 75.2248 47.2733 76.4482 45.7233 77.9928C44.1734 79.5373 42.9436 81.3726 42.1044 83.3935C41.2653 85.4143 40.8334 87.5809 40.8334 89.7691V111.644C40.8334 116.069 42.5911 120.312 45.7198 123.441C48.8485 126.57 53.092 128.327 57.5167 128.327H82.4834C86.9071 128.327 91.1496 126.571 94.2782 123.443C97.4068 120.316 99.1652 116.074 99.1667 111.65V101.85H74.1359C71.8609 101.85 70 98.5249 70 96.2499H111.65C116.075 96.2499 120.318 94.4922 123.447 91.3635C126.576 88.2348 128.333 83.9913 128.333 79.5666V57.5166C128.333 53.0919 126.576 48.8484 123.447 45.7197C120.318 42.591 116.075 40.8333 111.65 40.8333H104.761ZM48.5334 67.1591L48.51 67.1824L48.7317 67.1591H48.5334ZM86.6834 109.602C88.9584 109.602 90.825 111.352 90.825 114.794C90.825 115.338 90.7179 115.877 90.5098 116.379C90.3016 116.882 89.9966 117.338 89.612 117.723C89.2274 118.107 88.7708 118.412 88.2683 118.62C87.7658 118.829 87.2273 118.936 86.6834 118.936C84.35 118.936 82.4834 118.236 82.4834 114.794C82.4834 111.352 84.35 109.602 86.6834 109.602Z" fill="#FDD835"/>
</svg>
