<svg width="140" height="140" viewBox="0 0 140 140" fill="none" xmlns="http://www.w3.org/2000/svg">
<g clip-path="url(#clip0_287_6)">
<path d="M70.0044 28.002C51.3374 28.002 39.6747 37.3316 35.0044 55.9987C42.0022 46.6679 50.1714 43.169 59.5022 45.502C64.8299 46.8298 68.6372 50.6929 72.8536 54.9738C79.7158 61.9377 87.6586 69.9998 105.004 69.9998C123.67 69.9998 135.334 60.669 140.004 41.9976C133.004 51.3331 124.838 54.8338 115.505 52.4998C110.179 51.1709 106.376 47.3088 102.154 43.0279C95.2963 36.064 87.3556 28.002 70.0044 28.002ZM35.0044 69.9998C16.3385 69.9998 4.67471 79.3305 0.00439453 98.002C7.00367 88.6664 15.1696 85.1657 24.5022 87.4998C29.8299 88.8287 33.6372 92.6907 37.8536 96.9716C44.7158 103.936 52.6586 111.998 70.0044 111.998C88.6703 111.998 100.334 102.668 105.004 84.0009C98.0044 93.332 89.8381 96.8309 80.5055 94.4976C75.1789 93.1698 71.376 89.3066 67.1541 85.0257C60.2963 78.0618 52.3556 69.9998 35.0044 69.9998Z" fill="#38BDF8"/>
</g>
<defs>
<clipPath id="clip0_287_6">
<rect width="140" height="140" fill="white"/>
</clipPath>
</defs>
</svg>
